%TF.GenerationSoftware,KiCad,Pcbnew,(5.1.8)-1*%
%TF.CreationDate,2021-01-19T18:41:25+01:00*%
%TF.ProjectId,PAD_2021.01_FiltroNOAA_v1,5041445f-3230-4323-912e-30315f46696c,rev?*%
%TF.SameCoordinates,Original*%
%TF.FileFunction,Legend,Top*%
%TF.FilePolarity,Positive*%
%FSLAX46Y46*%
G04 Gerber Fmt 4.6, Leading zero omitted, Abs format (unit mm)*
G04 Created by KiCad (PCBNEW (5.1.8)-1) date 2021-01-19 18:41:25*
%MOMM*%
%LPD*%
G01*
G04 APERTURE LIST*
%ADD10C,0.120000*%
%ADD11C,0.150000*%
G04 APERTURE END LIST*
D10*
%TO.C,C1*%
X100211252Y-85735000D02*
X99688748Y-85735000D01*
X100211252Y-84265000D02*
X99688748Y-84265000D01*
%TO.C,C2*%
X102765000Y-87188748D02*
X102765000Y-87711252D01*
X104235000Y-87188748D02*
X104235000Y-87711252D01*
%TO.C,C3*%
X109665580Y-85510000D02*
X109384420Y-85510000D01*
X109665580Y-84490000D02*
X109384420Y-84490000D01*
%TO.C,C4*%
X113735000Y-87238748D02*
X113735000Y-87761252D01*
X112265000Y-87238748D02*
X112265000Y-87761252D01*
%TO.C,C5*%
X119165580Y-84490000D02*
X118884420Y-84490000D01*
X119165580Y-85510000D02*
X118884420Y-85510000D01*
%TO.C,C6*%
X121765000Y-87188748D02*
X121765000Y-87711252D01*
X123235000Y-87188748D02*
X123235000Y-87711252D01*
%TO.C,C7*%
X128915580Y-85510000D02*
X128634420Y-85510000D01*
X128915580Y-84490000D02*
X128634420Y-84490000D01*
%TO.C,C8*%
X132985000Y-87188748D02*
X132985000Y-87711252D01*
X131515000Y-87188748D02*
X131515000Y-87711252D01*
%TO.C,C9*%
X138961252Y-84265000D02*
X138438748Y-84265000D01*
X138961252Y-85735000D02*
X138438748Y-85735000D01*
%TO.C,Entrada*%
X90210000Y-84750000D02*
X89710000Y-85000000D01*
X90210000Y-85250000D02*
X90210000Y-84750000D01*
X89710000Y-85000000D02*
X90210000Y-85250000D01*
%TO.C,Salida*%
X150540000Y-85000000D02*
X150040000Y-84750000D01*
X150040000Y-84750000D02*
X150040000Y-85250000D01*
X150040000Y-85250000D02*
X150540000Y-85000000D01*
%TO.C,L1*%
X106760000Y-87124721D02*
X106760000Y-87450279D01*
X105740000Y-87124721D02*
X105740000Y-87450279D01*
%TO.C,L2*%
X115490000Y-87337221D02*
X115490000Y-87662779D01*
X116510000Y-87337221D02*
X116510000Y-87662779D01*
%TO.C,L3*%
X126010000Y-87337221D02*
X126010000Y-87662779D01*
X124990000Y-87337221D02*
X124990000Y-87662779D01*
%TO.C,L4*%
X134740000Y-87337221D02*
X134740000Y-87662779D01*
X135760000Y-87337221D02*
X135760000Y-87662779D01*
%TO.C,C1*%
D11*
X99733333Y-88357142D02*
X99685714Y-88404761D01*
X99542857Y-88452380D01*
X99447619Y-88452380D01*
X99304761Y-88404761D01*
X99209523Y-88309523D01*
X99161904Y-88214285D01*
X99114285Y-88023809D01*
X99114285Y-87880952D01*
X99161904Y-87690476D01*
X99209523Y-87595238D01*
X99304761Y-87500000D01*
X99447619Y-87452380D01*
X99542857Y-87452380D01*
X99685714Y-87500000D01*
X99733333Y-87547619D01*
X100685714Y-88452380D02*
X100114285Y-88452380D01*
X100400000Y-88452380D02*
X100400000Y-87452380D01*
X100304761Y-87595238D01*
X100209523Y-87690476D01*
X100114285Y-87738095D01*
%TO.C,C2*%
X103857142Y-82416666D02*
X103904761Y-82464285D01*
X103952380Y-82607142D01*
X103952380Y-82702380D01*
X103904761Y-82845238D01*
X103809523Y-82940476D01*
X103714285Y-82988095D01*
X103523809Y-83035714D01*
X103380952Y-83035714D01*
X103190476Y-82988095D01*
X103095238Y-82940476D01*
X103000000Y-82845238D01*
X102952380Y-82702380D01*
X102952380Y-82607142D01*
X103000000Y-82464285D01*
X103047619Y-82416666D01*
X103047619Y-82035714D02*
X103000000Y-81988095D01*
X102952380Y-81892857D01*
X102952380Y-81654761D01*
X103000000Y-81559523D01*
X103047619Y-81511904D01*
X103142857Y-81464285D01*
X103238095Y-81464285D01*
X103380952Y-81511904D01*
X103952380Y-82083333D01*
X103952380Y-81464285D01*
%TO.C,C3*%
X109333333Y-88107142D02*
X109285714Y-88154761D01*
X109142857Y-88202380D01*
X109047619Y-88202380D01*
X108904761Y-88154761D01*
X108809523Y-88059523D01*
X108761904Y-87964285D01*
X108714285Y-87773809D01*
X108714285Y-87630952D01*
X108761904Y-87440476D01*
X108809523Y-87345238D01*
X108904761Y-87250000D01*
X109047619Y-87202380D01*
X109142857Y-87202380D01*
X109285714Y-87250000D01*
X109333333Y-87297619D01*
X109666666Y-87202380D02*
X110285714Y-87202380D01*
X109952380Y-87583333D01*
X110095238Y-87583333D01*
X110190476Y-87630952D01*
X110238095Y-87678571D01*
X110285714Y-87773809D01*
X110285714Y-88011904D01*
X110238095Y-88107142D01*
X110190476Y-88154761D01*
X110095238Y-88202380D01*
X109809523Y-88202380D01*
X109714285Y-88154761D01*
X109666666Y-88107142D01*
%TO.C,C4*%
X113357142Y-82416666D02*
X113404761Y-82464285D01*
X113452380Y-82607142D01*
X113452380Y-82702380D01*
X113404761Y-82845238D01*
X113309523Y-82940476D01*
X113214285Y-82988095D01*
X113023809Y-83035714D01*
X112880952Y-83035714D01*
X112690476Y-82988095D01*
X112595238Y-82940476D01*
X112500000Y-82845238D01*
X112452380Y-82702380D01*
X112452380Y-82607142D01*
X112500000Y-82464285D01*
X112547619Y-82416666D01*
X112785714Y-81559523D02*
X113452380Y-81559523D01*
X112404761Y-81797619D02*
X113119047Y-82035714D01*
X113119047Y-81416666D01*
%TO.C,C5*%
X118858333Y-87857142D02*
X118810714Y-87904761D01*
X118667857Y-87952380D01*
X118572619Y-87952380D01*
X118429761Y-87904761D01*
X118334523Y-87809523D01*
X118286904Y-87714285D01*
X118239285Y-87523809D01*
X118239285Y-87380952D01*
X118286904Y-87190476D01*
X118334523Y-87095238D01*
X118429761Y-87000000D01*
X118572619Y-86952380D01*
X118667857Y-86952380D01*
X118810714Y-87000000D01*
X118858333Y-87047619D01*
X119763095Y-86952380D02*
X119286904Y-86952380D01*
X119239285Y-87428571D01*
X119286904Y-87380952D01*
X119382142Y-87333333D01*
X119620238Y-87333333D01*
X119715476Y-87380952D01*
X119763095Y-87428571D01*
X119810714Y-87523809D01*
X119810714Y-87761904D01*
X119763095Y-87857142D01*
X119715476Y-87904761D01*
X119620238Y-87952380D01*
X119382142Y-87952380D01*
X119286904Y-87904761D01*
X119239285Y-87857142D01*
%TO.C,C6*%
X122857142Y-82416666D02*
X122904761Y-82464285D01*
X122952380Y-82607142D01*
X122952380Y-82702380D01*
X122904761Y-82845238D01*
X122809523Y-82940476D01*
X122714285Y-82988095D01*
X122523809Y-83035714D01*
X122380952Y-83035714D01*
X122190476Y-82988095D01*
X122095238Y-82940476D01*
X122000000Y-82845238D01*
X121952380Y-82702380D01*
X121952380Y-82607142D01*
X122000000Y-82464285D01*
X122047619Y-82416666D01*
X121952380Y-81559523D02*
X121952380Y-81750000D01*
X122000000Y-81845238D01*
X122047619Y-81892857D01*
X122190476Y-81988095D01*
X122380952Y-82035714D01*
X122761904Y-82035714D01*
X122857142Y-81988095D01*
X122904761Y-81940476D01*
X122952380Y-81845238D01*
X122952380Y-81654761D01*
X122904761Y-81559523D01*
X122857142Y-81511904D01*
X122761904Y-81464285D01*
X122523809Y-81464285D01*
X122428571Y-81511904D01*
X122380952Y-81559523D01*
X122333333Y-81654761D01*
X122333333Y-81845238D01*
X122380952Y-81940476D01*
X122428571Y-81988095D01*
X122523809Y-82035714D01*
%TO.C,C7*%
X128608333Y-87857142D02*
X128560714Y-87904761D01*
X128417857Y-87952380D01*
X128322619Y-87952380D01*
X128179761Y-87904761D01*
X128084523Y-87809523D01*
X128036904Y-87714285D01*
X127989285Y-87523809D01*
X127989285Y-87380952D01*
X128036904Y-87190476D01*
X128084523Y-87095238D01*
X128179761Y-87000000D01*
X128322619Y-86952380D01*
X128417857Y-86952380D01*
X128560714Y-87000000D01*
X128608333Y-87047619D01*
X128941666Y-86952380D02*
X129608333Y-86952380D01*
X129179761Y-87952380D01*
%TO.C,C8*%
X132607142Y-82416666D02*
X132654761Y-82464285D01*
X132702380Y-82607142D01*
X132702380Y-82702380D01*
X132654761Y-82845238D01*
X132559523Y-82940476D01*
X132464285Y-82988095D01*
X132273809Y-83035714D01*
X132130952Y-83035714D01*
X131940476Y-82988095D01*
X131845238Y-82940476D01*
X131750000Y-82845238D01*
X131702380Y-82702380D01*
X131702380Y-82607142D01*
X131750000Y-82464285D01*
X131797619Y-82416666D01*
X132130952Y-81845238D02*
X132083333Y-81940476D01*
X132035714Y-81988095D01*
X131940476Y-82035714D01*
X131892857Y-82035714D01*
X131797619Y-81988095D01*
X131750000Y-81940476D01*
X131702380Y-81845238D01*
X131702380Y-81654761D01*
X131750000Y-81559523D01*
X131797619Y-81511904D01*
X131892857Y-81464285D01*
X131940476Y-81464285D01*
X132035714Y-81511904D01*
X132083333Y-81559523D01*
X132130952Y-81654761D01*
X132130952Y-81845238D01*
X132178571Y-81940476D01*
X132226190Y-81988095D01*
X132321428Y-82035714D01*
X132511904Y-82035714D01*
X132607142Y-81988095D01*
X132654761Y-81940476D01*
X132702380Y-81845238D01*
X132702380Y-81654761D01*
X132654761Y-81559523D01*
X132607142Y-81511904D01*
X132511904Y-81464285D01*
X132321428Y-81464285D01*
X132226190Y-81511904D01*
X132178571Y-81559523D01*
X132130952Y-81654761D01*
%TO.C,C9*%
X138533333Y-87857142D02*
X138485714Y-87904761D01*
X138342857Y-87952380D01*
X138247619Y-87952380D01*
X138104761Y-87904761D01*
X138009523Y-87809523D01*
X137961904Y-87714285D01*
X137914285Y-87523809D01*
X137914285Y-87380952D01*
X137961904Y-87190476D01*
X138009523Y-87095238D01*
X138104761Y-87000000D01*
X138247619Y-86952380D01*
X138342857Y-86952380D01*
X138485714Y-87000000D01*
X138533333Y-87047619D01*
X139009523Y-87952380D02*
X139200000Y-87952380D01*
X139295238Y-87904761D01*
X139342857Y-87857142D01*
X139438095Y-87714285D01*
X139485714Y-87523809D01*
X139485714Y-87142857D01*
X139438095Y-87047619D01*
X139390476Y-87000000D01*
X139295238Y-86952380D01*
X139104761Y-86952380D01*
X139009523Y-87000000D01*
X138961904Y-87047619D01*
X138914285Y-87142857D01*
X138914285Y-87380952D01*
X138961904Y-87476190D01*
X139009523Y-87523809D01*
X139104761Y-87571428D01*
X139295238Y-87571428D01*
X139390476Y-87523809D01*
X139438095Y-87476190D01*
X139485714Y-87380952D01*
%TO.C,Entrada*%
X90680952Y-79828571D02*
X91014285Y-79828571D01*
X91157142Y-80352380D02*
X90680952Y-80352380D01*
X90680952Y-79352380D01*
X91157142Y-79352380D01*
X91585714Y-79685714D02*
X91585714Y-80352380D01*
X91585714Y-79780952D02*
X91633333Y-79733333D01*
X91728571Y-79685714D01*
X91871428Y-79685714D01*
X91966666Y-79733333D01*
X92014285Y-79828571D01*
X92014285Y-80352380D01*
X92347619Y-79685714D02*
X92728571Y-79685714D01*
X92490476Y-79352380D02*
X92490476Y-80209523D01*
X92538095Y-80304761D01*
X92633333Y-80352380D01*
X92728571Y-80352380D01*
X93061904Y-80352380D02*
X93061904Y-79685714D01*
X93061904Y-79876190D02*
X93109523Y-79780952D01*
X93157142Y-79733333D01*
X93252380Y-79685714D01*
X93347619Y-79685714D01*
X94109523Y-80352380D02*
X94109523Y-79828571D01*
X94061904Y-79733333D01*
X93966666Y-79685714D01*
X93776190Y-79685714D01*
X93680952Y-79733333D01*
X94109523Y-80304761D02*
X94014285Y-80352380D01*
X93776190Y-80352380D01*
X93680952Y-80304761D01*
X93633333Y-80209523D01*
X93633333Y-80114285D01*
X93680952Y-80019047D01*
X93776190Y-79971428D01*
X94014285Y-79971428D01*
X94109523Y-79923809D01*
X95014285Y-80352380D02*
X95014285Y-79352380D01*
X95014285Y-80304761D02*
X94919047Y-80352380D01*
X94728571Y-80352380D01*
X94633333Y-80304761D01*
X94585714Y-80257142D01*
X94538095Y-80161904D01*
X94538095Y-79876190D01*
X94585714Y-79780952D01*
X94633333Y-79733333D01*
X94728571Y-79685714D01*
X94919047Y-79685714D01*
X95014285Y-79733333D01*
X95919047Y-80352380D02*
X95919047Y-79828571D01*
X95871428Y-79733333D01*
X95776190Y-79685714D01*
X95585714Y-79685714D01*
X95490476Y-79733333D01*
X95919047Y-80304761D02*
X95823809Y-80352380D01*
X95585714Y-80352380D01*
X95490476Y-80304761D01*
X95442857Y-80209523D01*
X95442857Y-80114285D01*
X95490476Y-80019047D01*
X95585714Y-79971428D01*
X95823809Y-79971428D01*
X95919047Y-79923809D01*
%TO.C,Salida*%
X145457142Y-80204761D02*
X145600000Y-80252380D01*
X145838095Y-80252380D01*
X145933333Y-80204761D01*
X145980952Y-80157142D01*
X146028571Y-80061904D01*
X146028571Y-79966666D01*
X145980952Y-79871428D01*
X145933333Y-79823809D01*
X145838095Y-79776190D01*
X145647619Y-79728571D01*
X145552380Y-79680952D01*
X145504761Y-79633333D01*
X145457142Y-79538095D01*
X145457142Y-79442857D01*
X145504761Y-79347619D01*
X145552380Y-79300000D01*
X145647619Y-79252380D01*
X145885714Y-79252380D01*
X146028571Y-79300000D01*
X146885714Y-80252380D02*
X146885714Y-79728571D01*
X146838095Y-79633333D01*
X146742857Y-79585714D01*
X146552380Y-79585714D01*
X146457142Y-79633333D01*
X146885714Y-80204761D02*
X146790476Y-80252380D01*
X146552380Y-80252380D01*
X146457142Y-80204761D01*
X146409523Y-80109523D01*
X146409523Y-80014285D01*
X146457142Y-79919047D01*
X146552380Y-79871428D01*
X146790476Y-79871428D01*
X146885714Y-79823809D01*
X147504761Y-80252380D02*
X147409523Y-80204761D01*
X147361904Y-80109523D01*
X147361904Y-79252380D01*
X147885714Y-80252380D02*
X147885714Y-79585714D01*
X147885714Y-79252380D02*
X147838095Y-79300000D01*
X147885714Y-79347619D01*
X147933333Y-79300000D01*
X147885714Y-79252380D01*
X147885714Y-79347619D01*
X148790476Y-80252380D02*
X148790476Y-79252380D01*
X148790476Y-80204761D02*
X148695238Y-80252380D01*
X148504761Y-80252380D01*
X148409523Y-80204761D01*
X148361904Y-80157142D01*
X148314285Y-80061904D01*
X148314285Y-79776190D01*
X148361904Y-79680952D01*
X148409523Y-79633333D01*
X148504761Y-79585714D01*
X148695238Y-79585714D01*
X148790476Y-79633333D01*
X149695238Y-80252380D02*
X149695238Y-79728571D01*
X149647619Y-79633333D01*
X149552380Y-79585714D01*
X149361904Y-79585714D01*
X149266666Y-79633333D01*
X149695238Y-80204761D02*
X149600000Y-80252380D01*
X149361904Y-80252380D01*
X149266666Y-80204761D01*
X149219047Y-80109523D01*
X149219047Y-80014285D01*
X149266666Y-79919047D01*
X149361904Y-79871428D01*
X149600000Y-79871428D01*
X149695238Y-79823809D01*
%TO.C,L1*%
X106702380Y-82416666D02*
X106702380Y-82892857D01*
X105702380Y-82892857D01*
X106702380Y-81559523D02*
X106702380Y-82130952D01*
X106702380Y-81845238D02*
X105702380Y-81845238D01*
X105845238Y-81940476D01*
X105940476Y-82035714D01*
X105988095Y-82130952D01*
%TO.C,L2*%
X116452380Y-82416666D02*
X116452380Y-82892857D01*
X115452380Y-82892857D01*
X115547619Y-82130952D02*
X115500000Y-82083333D01*
X115452380Y-81988095D01*
X115452380Y-81750000D01*
X115500000Y-81654761D01*
X115547619Y-81607142D01*
X115642857Y-81559523D01*
X115738095Y-81559523D01*
X115880952Y-81607142D01*
X116452380Y-82178571D01*
X116452380Y-81559523D01*
%TO.C,L3*%
X125952380Y-82416666D02*
X125952380Y-82892857D01*
X124952380Y-82892857D01*
X124952380Y-82178571D02*
X124952380Y-81559523D01*
X125333333Y-81892857D01*
X125333333Y-81750000D01*
X125380952Y-81654761D01*
X125428571Y-81607142D01*
X125523809Y-81559523D01*
X125761904Y-81559523D01*
X125857142Y-81607142D01*
X125904761Y-81654761D01*
X125952380Y-81750000D01*
X125952380Y-82035714D01*
X125904761Y-82130952D01*
X125857142Y-82178571D01*
%TO.C,L4*%
X135702380Y-82416666D02*
X135702380Y-82892857D01*
X134702380Y-82892857D01*
X135035714Y-81654761D02*
X135702380Y-81654761D01*
X134654761Y-81892857D02*
X135369047Y-82130952D01*
X135369047Y-81511904D01*
%TD*%
M02*
