%TF.GenerationSoftware,KiCad,Pcbnew,(5.1.8)-1*%
%TF.CreationDate,2021-01-19T18:41:25+01:00*%
%TF.ProjectId,PAD_2021.01_FiltroNOAA_v1,5041445f-3230-4323-912e-30315f46696c,rev?*%
%TF.SameCoordinates,Original*%
%TF.FileFunction,Copper,L1,Top*%
%TF.FilePolarity,Positive*%
%FSLAX46Y46*%
G04 Gerber Fmt 4.6, Leading zero omitted, Abs format (unit mm)*
G04 Created by KiCad (PCBNEW (5.1.8)-1) date 2021-01-19 18:41:25*
%MOMM*%
%LPD*%
G01*
G04 APERTURE LIST*
%TA.AperFunction,SMDPad,CuDef*%
%ADD10R,5.080000X1.500000*%
%TD*%
%TA.AperFunction,ViaPad*%
%ADD11C,0.800000*%
%TD*%
%TA.AperFunction,Conductor*%
%ADD12C,0.250000*%
%TD*%
%TA.AperFunction,Conductor*%
%ADD13C,3.000000*%
%TD*%
%TA.AperFunction,Conductor*%
%ADD14C,0.254000*%
%TD*%
%TA.AperFunction,Conductor*%
%ADD15C,0.100000*%
%TD*%
G04 APERTURE END LIST*
%TO.P,C1,1*%
%TO.N,Net-(C1-Pad1)*%
%TA.AperFunction,SMDPad,CuDef*%
G36*
G01*
X101400000Y-84525000D02*
X101400000Y-85475000D01*
G75*
G02*
X101150000Y-85725000I-250000J0D01*
G01*
X100650000Y-85725000D01*
G75*
G02*
X100400000Y-85475000I0J250000D01*
G01*
X100400000Y-84525000D01*
G75*
G02*
X100650000Y-84275000I250000J0D01*
G01*
X101150000Y-84275000D01*
G75*
G02*
X101400000Y-84525000I0J-250000D01*
G01*
G37*
%TD.AperFunction*%
%TO.P,C1,2*%
%TO.N,Net-(C1-Pad2)*%
%TA.AperFunction,SMDPad,CuDef*%
G36*
G01*
X99500000Y-84525000D02*
X99500000Y-85475000D01*
G75*
G02*
X99250000Y-85725000I-250000J0D01*
G01*
X98750000Y-85725000D01*
G75*
G02*
X98500000Y-85475000I0J250000D01*
G01*
X98500000Y-84525000D01*
G75*
G02*
X98750000Y-84275000I250000J0D01*
G01*
X99250000Y-84275000D01*
G75*
G02*
X99500000Y-84525000I0J-250000D01*
G01*
G37*
%TD.AperFunction*%
%TD*%
%TO.P,C2,2*%
%TO.N,Earth*%
%TA.AperFunction,SMDPad,CuDef*%
G36*
G01*
X103025000Y-87900000D02*
X103975000Y-87900000D01*
G75*
G02*
X104225000Y-88150000I0J-250000D01*
G01*
X104225000Y-88650000D01*
G75*
G02*
X103975000Y-88900000I-250000J0D01*
G01*
X103025000Y-88900000D01*
G75*
G02*
X102775000Y-88650000I0J250000D01*
G01*
X102775000Y-88150000D01*
G75*
G02*
X103025000Y-87900000I250000J0D01*
G01*
G37*
%TD.AperFunction*%
%TO.P,C2,1*%
%TO.N,Net-(C1-Pad1)*%
%TA.AperFunction,SMDPad,CuDef*%
G36*
G01*
X103025000Y-86000000D02*
X103975000Y-86000000D01*
G75*
G02*
X104225000Y-86250000I0J-250000D01*
G01*
X104225000Y-86750000D01*
G75*
G02*
X103975000Y-87000000I-250000J0D01*
G01*
X103025000Y-87000000D01*
G75*
G02*
X102775000Y-86750000I0J250000D01*
G01*
X102775000Y-86250000D01*
G75*
G02*
X103025000Y-86000000I250000J0D01*
G01*
G37*
%TD.AperFunction*%
%TD*%
%TO.P,C3,1*%
%TO.N,Net-(C3-Pad1)*%
%TA.AperFunction,SMDPad,CuDef*%
G36*
G01*
X110750000Y-84750000D02*
X110750000Y-85250000D01*
G75*
G02*
X110525000Y-85475000I-225000J0D01*
G01*
X110075000Y-85475000D01*
G75*
G02*
X109850000Y-85250000I0J225000D01*
G01*
X109850000Y-84750000D01*
G75*
G02*
X110075000Y-84525000I225000J0D01*
G01*
X110525000Y-84525000D01*
G75*
G02*
X110750000Y-84750000I0J-225000D01*
G01*
G37*
%TD.AperFunction*%
%TO.P,C3,2*%
%TO.N,Net-(C1-Pad1)*%
%TA.AperFunction,SMDPad,CuDef*%
G36*
G01*
X109200000Y-84750000D02*
X109200000Y-85250000D01*
G75*
G02*
X108975000Y-85475000I-225000J0D01*
G01*
X108525000Y-85475000D01*
G75*
G02*
X108300000Y-85250000I0J225000D01*
G01*
X108300000Y-84750000D01*
G75*
G02*
X108525000Y-84525000I225000J0D01*
G01*
X108975000Y-84525000D01*
G75*
G02*
X109200000Y-84750000I0J-225000D01*
G01*
G37*
%TD.AperFunction*%
%TD*%
%TO.P,C4,1*%
%TO.N,Net-(C3-Pad1)*%
%TA.AperFunction,SMDPad,CuDef*%
G36*
G01*
X112525000Y-86050000D02*
X113475000Y-86050000D01*
G75*
G02*
X113725000Y-86300000I0J-250000D01*
G01*
X113725000Y-86800000D01*
G75*
G02*
X113475000Y-87050000I-250000J0D01*
G01*
X112525000Y-87050000D01*
G75*
G02*
X112275000Y-86800000I0J250000D01*
G01*
X112275000Y-86300000D01*
G75*
G02*
X112525000Y-86050000I250000J0D01*
G01*
G37*
%TD.AperFunction*%
%TO.P,C4,2*%
%TO.N,Earth*%
%TA.AperFunction,SMDPad,CuDef*%
G36*
G01*
X112525000Y-87950000D02*
X113475000Y-87950000D01*
G75*
G02*
X113725000Y-88200000I0J-250000D01*
G01*
X113725000Y-88700000D01*
G75*
G02*
X113475000Y-88950000I-250000J0D01*
G01*
X112525000Y-88950000D01*
G75*
G02*
X112275000Y-88700000I0J250000D01*
G01*
X112275000Y-88200000D01*
G75*
G02*
X112525000Y-87950000I250000J0D01*
G01*
G37*
%TD.AperFunction*%
%TD*%
%TO.P,C5,2*%
%TO.N,Net-(C3-Pad1)*%
%TA.AperFunction,SMDPad,CuDef*%
G36*
G01*
X118700000Y-84750000D02*
X118700000Y-85250000D01*
G75*
G02*
X118475000Y-85475000I-225000J0D01*
G01*
X118025000Y-85475000D01*
G75*
G02*
X117800000Y-85250000I0J225000D01*
G01*
X117800000Y-84750000D01*
G75*
G02*
X118025000Y-84525000I225000J0D01*
G01*
X118475000Y-84525000D01*
G75*
G02*
X118700000Y-84750000I0J-225000D01*
G01*
G37*
%TD.AperFunction*%
%TO.P,C5,1*%
%TO.N,Net-(C5-Pad1)*%
%TA.AperFunction,SMDPad,CuDef*%
G36*
G01*
X120250000Y-84750000D02*
X120250000Y-85250000D01*
G75*
G02*
X120025000Y-85475000I-225000J0D01*
G01*
X119575000Y-85475000D01*
G75*
G02*
X119350000Y-85250000I0J225000D01*
G01*
X119350000Y-84750000D01*
G75*
G02*
X119575000Y-84525000I225000J0D01*
G01*
X120025000Y-84525000D01*
G75*
G02*
X120250000Y-84750000I0J-225000D01*
G01*
G37*
%TD.AperFunction*%
%TD*%
%TO.P,C6,2*%
%TO.N,Earth*%
%TA.AperFunction,SMDPad,CuDef*%
G36*
G01*
X122025000Y-87900000D02*
X122975000Y-87900000D01*
G75*
G02*
X123225000Y-88150000I0J-250000D01*
G01*
X123225000Y-88650000D01*
G75*
G02*
X122975000Y-88900000I-250000J0D01*
G01*
X122025000Y-88900000D01*
G75*
G02*
X121775000Y-88650000I0J250000D01*
G01*
X121775000Y-88150000D01*
G75*
G02*
X122025000Y-87900000I250000J0D01*
G01*
G37*
%TD.AperFunction*%
%TO.P,C6,1*%
%TO.N,Net-(C5-Pad1)*%
%TA.AperFunction,SMDPad,CuDef*%
G36*
G01*
X122025000Y-86000000D02*
X122975000Y-86000000D01*
G75*
G02*
X123225000Y-86250000I0J-250000D01*
G01*
X123225000Y-86750000D01*
G75*
G02*
X122975000Y-87000000I-250000J0D01*
G01*
X122025000Y-87000000D01*
G75*
G02*
X121775000Y-86750000I0J250000D01*
G01*
X121775000Y-86250000D01*
G75*
G02*
X122025000Y-86000000I250000J0D01*
G01*
G37*
%TD.AperFunction*%
%TD*%
%TO.P,C7,1*%
%TO.N,Net-(C7-Pad1)*%
%TA.AperFunction,SMDPad,CuDef*%
G36*
G01*
X130000000Y-84750000D02*
X130000000Y-85250000D01*
G75*
G02*
X129775000Y-85475000I-225000J0D01*
G01*
X129325000Y-85475000D01*
G75*
G02*
X129100000Y-85250000I0J225000D01*
G01*
X129100000Y-84750000D01*
G75*
G02*
X129325000Y-84525000I225000J0D01*
G01*
X129775000Y-84525000D01*
G75*
G02*
X130000000Y-84750000I0J-225000D01*
G01*
G37*
%TD.AperFunction*%
%TO.P,C7,2*%
%TO.N,Net-(C5-Pad1)*%
%TA.AperFunction,SMDPad,CuDef*%
G36*
G01*
X128450000Y-84750000D02*
X128450000Y-85250000D01*
G75*
G02*
X128225000Y-85475000I-225000J0D01*
G01*
X127775000Y-85475000D01*
G75*
G02*
X127550000Y-85250000I0J225000D01*
G01*
X127550000Y-84750000D01*
G75*
G02*
X127775000Y-84525000I225000J0D01*
G01*
X128225000Y-84525000D01*
G75*
G02*
X128450000Y-84750000I0J-225000D01*
G01*
G37*
%TD.AperFunction*%
%TD*%
%TO.P,C8,1*%
%TO.N,Net-(C7-Pad1)*%
%TA.AperFunction,SMDPad,CuDef*%
G36*
G01*
X131775000Y-86000000D02*
X132725000Y-86000000D01*
G75*
G02*
X132975000Y-86250000I0J-250000D01*
G01*
X132975000Y-86750000D01*
G75*
G02*
X132725000Y-87000000I-250000J0D01*
G01*
X131775000Y-87000000D01*
G75*
G02*
X131525000Y-86750000I0J250000D01*
G01*
X131525000Y-86250000D01*
G75*
G02*
X131775000Y-86000000I250000J0D01*
G01*
G37*
%TD.AperFunction*%
%TO.P,C8,2*%
%TO.N,Earth*%
%TA.AperFunction,SMDPad,CuDef*%
G36*
G01*
X131775000Y-87900000D02*
X132725000Y-87900000D01*
G75*
G02*
X132975000Y-88150000I0J-250000D01*
G01*
X132975000Y-88650000D01*
G75*
G02*
X132725000Y-88900000I-250000J0D01*
G01*
X131775000Y-88900000D01*
G75*
G02*
X131525000Y-88650000I0J250000D01*
G01*
X131525000Y-88150000D01*
G75*
G02*
X131775000Y-87900000I250000J0D01*
G01*
G37*
%TD.AperFunction*%
%TD*%
%TO.P,C9,2*%
%TO.N,Net-(C7-Pad1)*%
%TA.AperFunction,SMDPad,CuDef*%
G36*
G01*
X138250000Y-84525000D02*
X138250000Y-85475000D01*
G75*
G02*
X138000000Y-85725000I-250000J0D01*
G01*
X137500000Y-85725000D01*
G75*
G02*
X137250000Y-85475000I0J250000D01*
G01*
X137250000Y-84525000D01*
G75*
G02*
X137500000Y-84275000I250000J0D01*
G01*
X138000000Y-84275000D01*
G75*
G02*
X138250000Y-84525000I0J-250000D01*
G01*
G37*
%TD.AperFunction*%
%TO.P,C9,1*%
%TO.N,Net-(C9-Pad1)*%
%TA.AperFunction,SMDPad,CuDef*%
G36*
G01*
X140150000Y-84525000D02*
X140150000Y-85475000D01*
G75*
G02*
X139900000Y-85725000I-250000J0D01*
G01*
X139400000Y-85725000D01*
G75*
G02*
X139150000Y-85475000I0J250000D01*
G01*
X139150000Y-84525000D01*
G75*
G02*
X139400000Y-84275000I250000J0D01*
G01*
X139900000Y-84275000D01*
G75*
G02*
X140150000Y-84525000I0J-250000D01*
G01*
G37*
%TD.AperFunction*%
%TD*%
D10*
%TO.P,Entrada,2*%
%TO.N,Earth*%
X86500000Y-80750000D03*
X86500000Y-89250000D03*
%TO.P,Entrada,1*%
%TO.N,Net-(C1-Pad2)*%
X86500000Y-85000000D03*
%TD*%
%TO.P,Salida,1*%
%TO.N,Net-(C9-Pad1)*%
X153750000Y-85000000D03*
%TO.P,Salida,2*%
%TO.N,Earth*%
X153750000Y-80750000D03*
X153750000Y-89250000D03*
%TD*%
%TO.P,L1,1*%
%TO.N,Net-(C1-Pad1)*%
%TA.AperFunction,SMDPad,CuDef*%
G36*
G01*
X105993750Y-86062500D02*
X106506250Y-86062500D01*
G75*
G02*
X106725000Y-86281250I0J-218750D01*
G01*
X106725000Y-86718750D01*
G75*
G02*
X106506250Y-86937500I-218750J0D01*
G01*
X105993750Y-86937500D01*
G75*
G02*
X105775000Y-86718750I0J218750D01*
G01*
X105775000Y-86281250D01*
G75*
G02*
X105993750Y-86062500I218750J0D01*
G01*
G37*
%TD.AperFunction*%
%TO.P,L1,2*%
%TO.N,Earth*%
%TA.AperFunction,SMDPad,CuDef*%
G36*
G01*
X105993750Y-87637500D02*
X106506250Y-87637500D01*
G75*
G02*
X106725000Y-87856250I0J-218750D01*
G01*
X106725000Y-88293750D01*
G75*
G02*
X106506250Y-88512500I-218750J0D01*
G01*
X105993750Y-88512500D01*
G75*
G02*
X105775000Y-88293750I0J218750D01*
G01*
X105775000Y-87856250D01*
G75*
G02*
X105993750Y-87637500I218750J0D01*
G01*
G37*
%TD.AperFunction*%
%TD*%
%TO.P,L2,2*%
%TO.N,Earth*%
%TA.AperFunction,SMDPad,CuDef*%
G36*
G01*
X115743750Y-87850000D02*
X116256250Y-87850000D01*
G75*
G02*
X116475000Y-88068750I0J-218750D01*
G01*
X116475000Y-88506250D01*
G75*
G02*
X116256250Y-88725000I-218750J0D01*
G01*
X115743750Y-88725000D01*
G75*
G02*
X115525000Y-88506250I0J218750D01*
G01*
X115525000Y-88068750D01*
G75*
G02*
X115743750Y-87850000I218750J0D01*
G01*
G37*
%TD.AperFunction*%
%TO.P,L2,1*%
%TO.N,Net-(C3-Pad1)*%
%TA.AperFunction,SMDPad,CuDef*%
G36*
G01*
X115743750Y-86275000D02*
X116256250Y-86275000D01*
G75*
G02*
X116475000Y-86493750I0J-218750D01*
G01*
X116475000Y-86931250D01*
G75*
G02*
X116256250Y-87150000I-218750J0D01*
G01*
X115743750Y-87150000D01*
G75*
G02*
X115525000Y-86931250I0J218750D01*
G01*
X115525000Y-86493750D01*
G75*
G02*
X115743750Y-86275000I218750J0D01*
G01*
G37*
%TD.AperFunction*%
%TD*%
%TO.P,L3,1*%
%TO.N,Net-(C5-Pad1)*%
%TA.AperFunction,SMDPad,CuDef*%
G36*
G01*
X125243750Y-86275000D02*
X125756250Y-86275000D01*
G75*
G02*
X125975000Y-86493750I0J-218750D01*
G01*
X125975000Y-86931250D01*
G75*
G02*
X125756250Y-87150000I-218750J0D01*
G01*
X125243750Y-87150000D01*
G75*
G02*
X125025000Y-86931250I0J218750D01*
G01*
X125025000Y-86493750D01*
G75*
G02*
X125243750Y-86275000I218750J0D01*
G01*
G37*
%TD.AperFunction*%
%TO.P,L3,2*%
%TO.N,Earth*%
%TA.AperFunction,SMDPad,CuDef*%
G36*
G01*
X125243750Y-87850000D02*
X125756250Y-87850000D01*
G75*
G02*
X125975000Y-88068750I0J-218750D01*
G01*
X125975000Y-88506250D01*
G75*
G02*
X125756250Y-88725000I-218750J0D01*
G01*
X125243750Y-88725000D01*
G75*
G02*
X125025000Y-88506250I0J218750D01*
G01*
X125025000Y-88068750D01*
G75*
G02*
X125243750Y-87850000I218750J0D01*
G01*
G37*
%TD.AperFunction*%
%TD*%
%TO.P,L4,2*%
%TO.N,Earth*%
%TA.AperFunction,SMDPad,CuDef*%
G36*
G01*
X134993750Y-87850000D02*
X135506250Y-87850000D01*
G75*
G02*
X135725000Y-88068750I0J-218750D01*
G01*
X135725000Y-88506250D01*
G75*
G02*
X135506250Y-88725000I-218750J0D01*
G01*
X134993750Y-88725000D01*
G75*
G02*
X134775000Y-88506250I0J218750D01*
G01*
X134775000Y-88068750D01*
G75*
G02*
X134993750Y-87850000I218750J0D01*
G01*
G37*
%TD.AperFunction*%
%TO.P,L4,1*%
%TO.N,Net-(C7-Pad1)*%
%TA.AperFunction,SMDPad,CuDef*%
G36*
G01*
X134993750Y-86275000D02*
X135506250Y-86275000D01*
G75*
G02*
X135725000Y-86493750I0J-218750D01*
G01*
X135725000Y-86931250D01*
G75*
G02*
X135506250Y-87150000I-218750J0D01*
G01*
X134993750Y-87150000D01*
G75*
G02*
X134775000Y-86931250I0J218750D01*
G01*
X134775000Y-86493750D01*
G75*
G02*
X134993750Y-86275000I218750J0D01*
G01*
G37*
%TD.AperFunction*%
%TD*%
D11*
%TO.N,Earth*%
X97600000Y-74950000D03*
X102600000Y-74950000D03*
X107600000Y-74950000D03*
X112600000Y-74950000D03*
X117600000Y-74950000D03*
X122600000Y-74950000D03*
X127600000Y-74950000D03*
X132600000Y-74950000D03*
X137600000Y-74950000D03*
X142600000Y-74950000D03*
X95000000Y-80200000D03*
X100000000Y-80200000D03*
X105000000Y-80200000D03*
X110000000Y-80200000D03*
X115000000Y-80200000D03*
X120000000Y-80200000D03*
X125000000Y-80200000D03*
X130000000Y-80200000D03*
X135000000Y-80200000D03*
X140000000Y-80200000D03*
X145000000Y-80200000D03*
X150000000Y-80200000D03*
X90000000Y-80200000D03*
X97750000Y-94700000D03*
X102750000Y-94700000D03*
X107750000Y-94700000D03*
X112750000Y-94700000D03*
X117750000Y-94700000D03*
X122750000Y-94700000D03*
X127750000Y-94700000D03*
X132750000Y-94700000D03*
X137750000Y-94700000D03*
X142750000Y-94700000D03*
X95000000Y-90000000D03*
X100000000Y-90000000D03*
X110000000Y-90000000D03*
X120000000Y-90000000D03*
X130000000Y-90000000D03*
X140000000Y-90000000D03*
X145000000Y-90000000D03*
X150000000Y-90000000D03*
X90000000Y-90000000D03*
%TD*%
D12*
%TO.N,Net-(C1-Pad1)*%
X101750000Y-85000000D02*
X100900000Y-85000000D01*
X103500000Y-85500000D02*
X103000000Y-85000000D01*
X103500000Y-86500000D02*
X103500000Y-85500000D01*
X106250000Y-85500000D02*
X105750000Y-85000000D01*
X106250000Y-86500000D02*
X106250000Y-85500000D01*
X105750000Y-85000000D02*
X103000000Y-85000000D01*
D13*
X102000000Y-85000000D02*
X107500000Y-85000000D01*
D12*
X107500000Y-85000000D02*
X105750000Y-85000000D01*
X103000000Y-85000000D02*
X102000000Y-85000000D01*
X108750000Y-85000000D02*
X107500000Y-85000000D01*
X102000000Y-85000000D02*
X101750000Y-85000000D01*
D13*
%TO.N,Net-(C1-Pad2)*%
X91750000Y-85000000D02*
X97750000Y-85000000D01*
X86500000Y-85000000D02*
X91750000Y-85000000D01*
X91750000Y-85000000D02*
X94250000Y-85000000D01*
D12*
%TO.N,Net-(C3-Pad1)*%
X113000000Y-86550000D02*
X113000000Y-85000000D01*
X116000000Y-85000000D02*
X116000000Y-86712500D01*
X113000000Y-85000000D02*
X116000000Y-85000000D01*
D13*
X111500000Y-85000000D02*
X117000000Y-85000000D01*
D12*
X117000000Y-85000000D02*
X118250000Y-85000000D01*
X116000000Y-85000000D02*
X117000000Y-85000000D01*
X110300000Y-85000000D02*
X111500000Y-85000000D01*
X111500000Y-85000000D02*
X113000000Y-85000000D01*
%TO.N,Net-(C5-Pad1)*%
X122500000Y-85250000D02*
X122750000Y-85000000D01*
X122500000Y-86500000D02*
X122500000Y-85250000D01*
X125500000Y-85500000D02*
X125000000Y-85000000D01*
X125500000Y-86712500D02*
X125500000Y-85500000D01*
X122750000Y-85000000D02*
X125000000Y-85000000D01*
D13*
X121000000Y-85000000D02*
X126750000Y-85000000D01*
D12*
X125000000Y-85000000D02*
X126750000Y-85000000D01*
X119800000Y-85000000D02*
X121000000Y-85000000D01*
X126750000Y-85000000D02*
X128000000Y-85000000D01*
X121000000Y-85000000D02*
X122750000Y-85000000D01*
%TO.N,Net-(C7-Pad1)*%
X132250000Y-85750000D02*
X131500000Y-85000000D01*
X132250000Y-86500000D02*
X132250000Y-85750000D01*
X135250000Y-85500000D02*
X134750000Y-85000000D01*
X135250000Y-86712500D02*
X135250000Y-85500000D01*
X134750000Y-85000000D02*
X131500000Y-85000000D01*
D13*
X130750000Y-85000000D02*
X136500000Y-85000000D01*
D12*
X136500000Y-85000000D02*
X134750000Y-85000000D01*
X137750000Y-85000000D02*
X136500000Y-85000000D01*
X131500000Y-85000000D02*
X130750000Y-85000000D01*
X130750000Y-85000000D02*
X129550000Y-85000000D01*
D13*
%TO.N,Net-(C9-Pad1)*%
X153750000Y-85000000D02*
X145750000Y-85000000D01*
X145750000Y-85000000D02*
X140750000Y-85000000D01*
%TD*%
D14*
%TO.N,Earth*%
X156090001Y-79064945D02*
X156090001Y-80873000D01*
X84160000Y-80873000D01*
X84160000Y-79064944D01*
X88272193Y-75737314D01*
X90232905Y-75737314D01*
X90232905Y-76262686D01*
X90335400Y-76777963D01*
X90536451Y-77263343D01*
X90828332Y-77700174D01*
X91199826Y-78071668D01*
X91636657Y-78363549D01*
X92122037Y-78564600D01*
X92637314Y-78667095D01*
X93162686Y-78667095D01*
X93677963Y-78564600D01*
X94163343Y-78363549D01*
X94600174Y-78071668D01*
X94971668Y-77700174D01*
X95263549Y-77263343D01*
X95464600Y-76777963D01*
X95567095Y-76262686D01*
X95567095Y-75737314D01*
X144682905Y-75737314D01*
X144682905Y-76262686D01*
X144785400Y-76777963D01*
X144986451Y-77263343D01*
X145278332Y-77700174D01*
X145649826Y-78071668D01*
X146086657Y-78363549D01*
X146572037Y-78564600D01*
X147087314Y-78667095D01*
X147612686Y-78667095D01*
X148127963Y-78564600D01*
X148613343Y-78363549D01*
X149050174Y-78071668D01*
X149421668Y-77700174D01*
X149713549Y-77263343D01*
X149914600Y-76777963D01*
X150017095Y-76262686D01*
X150017095Y-75737314D01*
X149914600Y-75222037D01*
X149713549Y-74736657D01*
X149421668Y-74299826D01*
X149050174Y-73928332D01*
X148613343Y-73636451D01*
X148127963Y-73435400D01*
X147612686Y-73332905D01*
X147087314Y-73332905D01*
X146572037Y-73435400D01*
X146086657Y-73636451D01*
X145649826Y-73928332D01*
X145278332Y-74299826D01*
X144986451Y-74736657D01*
X144785400Y-75222037D01*
X144682905Y-75737314D01*
X95567095Y-75737314D01*
X95464600Y-75222037D01*
X95263549Y-74736657D01*
X94971668Y-74299826D01*
X94600174Y-73928332D01*
X94163343Y-73636451D01*
X93677963Y-73435400D01*
X93162686Y-73332905D01*
X92637314Y-73332905D01*
X92122037Y-73435400D01*
X91636657Y-73636451D01*
X91199826Y-73928332D01*
X90828332Y-74299826D01*
X90536451Y-74736657D01*
X90335400Y-75222037D01*
X90232905Y-75737314D01*
X88272193Y-75737314D01*
X91333590Y-73260000D01*
X148916410Y-73260000D01*
X156090001Y-79064945D01*
%TA.AperFunction,Conductor*%
D15*
G36*
X156090001Y-79064945D02*
G01*
X156090001Y-80873000D01*
X84160000Y-80873000D01*
X84160000Y-79064944D01*
X88272193Y-75737314D01*
X90232905Y-75737314D01*
X90232905Y-76262686D01*
X90335400Y-76777963D01*
X90536451Y-77263343D01*
X90828332Y-77700174D01*
X91199826Y-78071668D01*
X91636657Y-78363549D01*
X92122037Y-78564600D01*
X92637314Y-78667095D01*
X93162686Y-78667095D01*
X93677963Y-78564600D01*
X94163343Y-78363549D01*
X94600174Y-78071668D01*
X94971668Y-77700174D01*
X95263549Y-77263343D01*
X95464600Y-76777963D01*
X95567095Y-76262686D01*
X95567095Y-75737314D01*
X144682905Y-75737314D01*
X144682905Y-76262686D01*
X144785400Y-76777963D01*
X144986451Y-77263343D01*
X145278332Y-77700174D01*
X145649826Y-78071668D01*
X146086657Y-78363549D01*
X146572037Y-78564600D01*
X147087314Y-78667095D01*
X147612686Y-78667095D01*
X148127963Y-78564600D01*
X148613343Y-78363549D01*
X149050174Y-78071668D01*
X149421668Y-77700174D01*
X149713549Y-77263343D01*
X149914600Y-76777963D01*
X150017095Y-76262686D01*
X150017095Y-75737314D01*
X149914600Y-75222037D01*
X149713549Y-74736657D01*
X149421668Y-74299826D01*
X149050174Y-73928332D01*
X148613343Y-73636451D01*
X148127963Y-73435400D01*
X147612686Y-73332905D01*
X147087314Y-73332905D01*
X146572037Y-73435400D01*
X146086657Y-73636451D01*
X145649826Y-73928332D01*
X145278332Y-74299826D01*
X144986451Y-74736657D01*
X144785400Y-75222037D01*
X144682905Y-75737314D01*
X95567095Y-75737314D01*
X95464600Y-75222037D01*
X95263549Y-74736657D01*
X94971668Y-74299826D01*
X94600174Y-73928332D01*
X94163343Y-73636451D01*
X93677963Y-73435400D01*
X93162686Y-73332905D01*
X92637314Y-73332905D01*
X92122037Y-73435400D01*
X91636657Y-73636451D01*
X91199826Y-73928332D01*
X90828332Y-74299826D01*
X90536451Y-74736657D01*
X90335400Y-75222037D01*
X90232905Y-75737314D01*
X88272193Y-75737314D01*
X91333590Y-73260000D01*
X148916410Y-73260000D01*
X156090001Y-79064945D01*
G37*
%TD.AperFunction*%
%TD*%
D14*
%TO.N,Earth*%
X106875285Y-89023984D02*
X106882361Y-89047853D01*
X106893957Y-89069884D01*
X106909628Y-89089229D01*
X106928772Y-89105146D01*
X106950654Y-89117021D01*
X106974432Y-89124400D01*
X107000000Y-89127000D01*
X112000000Y-89127000D01*
X112024776Y-89124560D01*
X112048601Y-89117333D01*
X112070557Y-89105597D01*
X112089803Y-89089803D01*
X112105597Y-89070557D01*
X112117333Y-89048601D01*
X112122818Y-89032321D01*
X112347902Y-88177000D01*
X113646953Y-88177000D01*
X113825724Y-89026163D01*
X113833216Y-89049906D01*
X113845196Y-89071730D01*
X113861204Y-89090798D01*
X113880624Y-89106377D01*
X113902710Y-89117867D01*
X113926613Y-89124828D01*
X113950000Y-89127000D01*
X115400000Y-89127000D01*
X115424776Y-89124560D01*
X115448601Y-89117333D01*
X115470557Y-89105597D01*
X115489803Y-89089803D01*
X115505597Y-89070557D01*
X115517333Y-89048601D01*
X115524560Y-89024776D01*
X115526428Y-89012041D01*
X115615480Y-88077000D01*
X116384520Y-88077000D01*
X116473572Y-89012041D01*
X116478350Y-89036474D01*
X116487804Y-89059506D01*
X116501569Y-89080251D01*
X116519116Y-89097912D01*
X116539772Y-89111810D01*
X116562742Y-89121412D01*
X116587145Y-89126348D01*
X116600000Y-89127000D01*
X121500000Y-89127000D01*
X121524776Y-89124560D01*
X121548601Y-89117333D01*
X121570557Y-89105597D01*
X121589803Y-89089803D01*
X121605597Y-89070557D01*
X121617333Y-89048601D01*
X121623208Y-89030802D01*
X121849159Y-88127000D01*
X123150841Y-88127000D01*
X123376792Y-89030802D01*
X123385168Y-89054247D01*
X123397958Y-89075607D01*
X123414669Y-89094062D01*
X123434659Y-89108902D01*
X123457160Y-89119556D01*
X123481308Y-89125617D01*
X123500000Y-89127000D01*
X124800000Y-89127000D01*
X124824776Y-89124560D01*
X124848601Y-89117333D01*
X124870557Y-89105597D01*
X124889803Y-89089803D01*
X124905597Y-89070557D01*
X124917333Y-89048601D01*
X124924951Y-89022718D01*
X125105991Y-88027000D01*
X125894009Y-88027000D01*
X126075049Y-89022718D01*
X126081882Y-89046659D01*
X126093254Y-89068806D01*
X126108728Y-89088309D01*
X126127710Y-89104418D01*
X126149470Y-89116515D01*
X126173172Y-89124134D01*
X126200000Y-89127000D01*
X131200000Y-89127000D01*
X131224776Y-89124560D01*
X131248601Y-89117333D01*
X131270557Y-89105597D01*
X131289803Y-89089803D01*
X131305597Y-89070557D01*
X131317333Y-89048601D01*
X131321644Y-89036493D01*
X131594492Y-88127000D01*
X132905508Y-88127000D01*
X133178356Y-89036493D01*
X133187813Y-89059524D01*
X133201581Y-89080266D01*
X133219131Y-89097925D01*
X133239789Y-89111820D01*
X133262761Y-89121418D01*
X133287164Y-89126350D01*
X133300000Y-89127000D01*
X134600000Y-89127000D01*
X134624776Y-89124560D01*
X134648601Y-89117333D01*
X134670557Y-89105597D01*
X134689803Y-89089803D01*
X134705597Y-89070557D01*
X134717333Y-89048601D01*
X134725835Y-89017159D01*
X134860857Y-88027000D01*
X135639143Y-88027000D01*
X135774165Y-89017159D01*
X135779930Y-89041379D01*
X135790310Y-89064008D01*
X135804905Y-89084178D01*
X135823154Y-89101113D01*
X135844357Y-89114162D01*
X135867698Y-89122823D01*
X135900000Y-89127000D01*
X156090000Y-89127000D01*
X156090000Y-90935056D01*
X148916143Y-96740217D01*
X95100482Y-96790000D01*
X91333590Y-96790000D01*
X87622954Y-93787314D01*
X90232905Y-93787314D01*
X90232905Y-94312686D01*
X90335400Y-94827963D01*
X90536451Y-95313343D01*
X90828332Y-95750174D01*
X91199826Y-96121668D01*
X91636657Y-96413549D01*
X92122037Y-96614600D01*
X92637314Y-96717095D01*
X93162686Y-96717095D01*
X93677963Y-96614600D01*
X94163343Y-96413549D01*
X94600174Y-96121668D01*
X94971668Y-95750174D01*
X95263549Y-95313343D01*
X95464600Y-94827963D01*
X95567095Y-94312686D01*
X95567095Y-93787314D01*
X95557150Y-93737314D01*
X144682905Y-93737314D01*
X144682905Y-94262686D01*
X144785400Y-94777963D01*
X144986451Y-95263343D01*
X145278332Y-95700174D01*
X145649826Y-96071668D01*
X146086657Y-96363549D01*
X146572037Y-96564600D01*
X147087314Y-96667095D01*
X147612686Y-96667095D01*
X148127963Y-96564600D01*
X148613343Y-96363549D01*
X149050174Y-96071668D01*
X149421668Y-95700174D01*
X149713549Y-95263343D01*
X149914600Y-94777963D01*
X150017095Y-94262686D01*
X150017095Y-93737314D01*
X149914600Y-93222037D01*
X149713549Y-92736657D01*
X149421668Y-92299826D01*
X149050174Y-91928332D01*
X148613343Y-91636451D01*
X148127963Y-91435400D01*
X147612686Y-91332905D01*
X147087314Y-91332905D01*
X146572037Y-91435400D01*
X146086657Y-91636451D01*
X145649826Y-91928332D01*
X145278332Y-92299826D01*
X144986451Y-92736657D01*
X144785400Y-93222037D01*
X144682905Y-93737314D01*
X95557150Y-93737314D01*
X95464600Y-93272037D01*
X95263549Y-92786657D01*
X94971668Y-92349826D01*
X94600174Y-91978332D01*
X94163343Y-91686451D01*
X93677963Y-91485400D01*
X93162686Y-91382905D01*
X92637314Y-91382905D01*
X92122037Y-91485400D01*
X91636657Y-91686451D01*
X91199826Y-91978332D01*
X90828332Y-92349826D01*
X90536451Y-92786657D01*
X90335400Y-93272037D01*
X90232905Y-93787314D01*
X87622954Y-93787314D01*
X84160000Y-90985056D01*
X84160000Y-89127000D01*
X102500000Y-89127000D01*
X102524776Y-89124560D01*
X102548601Y-89117333D01*
X102570557Y-89105597D01*
X102589803Y-89089803D01*
X102605597Y-89070557D01*
X102617333Y-89048601D01*
X102623208Y-89030802D01*
X102849159Y-88127000D01*
X104150841Y-88127000D01*
X104376792Y-89030802D01*
X104385168Y-89054247D01*
X104397958Y-89075607D01*
X104414669Y-89094062D01*
X104434659Y-89108902D01*
X104457160Y-89119556D01*
X104481308Y-89125617D01*
X104500000Y-89127000D01*
X105500000Y-89127000D01*
X105524776Y-89124560D01*
X105548601Y-89117333D01*
X105570557Y-89105597D01*
X105589803Y-89089803D01*
X105605597Y-89070557D01*
X105617333Y-89048601D01*
X105624715Y-89023984D01*
X105854904Y-87827000D01*
X106645096Y-87827000D01*
X106875285Y-89023984D01*
%TA.AperFunction,Conductor*%
D15*
G36*
X106875285Y-89023984D02*
G01*
X106882361Y-89047853D01*
X106893957Y-89069884D01*
X106909628Y-89089229D01*
X106928772Y-89105146D01*
X106950654Y-89117021D01*
X106974432Y-89124400D01*
X107000000Y-89127000D01*
X112000000Y-89127000D01*
X112024776Y-89124560D01*
X112048601Y-89117333D01*
X112070557Y-89105597D01*
X112089803Y-89089803D01*
X112105597Y-89070557D01*
X112117333Y-89048601D01*
X112122818Y-89032321D01*
X112347902Y-88177000D01*
X113646953Y-88177000D01*
X113825724Y-89026163D01*
X113833216Y-89049906D01*
X113845196Y-89071730D01*
X113861204Y-89090798D01*
X113880624Y-89106377D01*
X113902710Y-89117867D01*
X113926613Y-89124828D01*
X113950000Y-89127000D01*
X115400000Y-89127000D01*
X115424776Y-89124560D01*
X115448601Y-89117333D01*
X115470557Y-89105597D01*
X115489803Y-89089803D01*
X115505597Y-89070557D01*
X115517333Y-89048601D01*
X115524560Y-89024776D01*
X115526428Y-89012041D01*
X115615480Y-88077000D01*
X116384520Y-88077000D01*
X116473572Y-89012041D01*
X116478350Y-89036474D01*
X116487804Y-89059506D01*
X116501569Y-89080251D01*
X116519116Y-89097912D01*
X116539772Y-89111810D01*
X116562742Y-89121412D01*
X116587145Y-89126348D01*
X116600000Y-89127000D01*
X121500000Y-89127000D01*
X121524776Y-89124560D01*
X121548601Y-89117333D01*
X121570557Y-89105597D01*
X121589803Y-89089803D01*
X121605597Y-89070557D01*
X121617333Y-89048601D01*
X121623208Y-89030802D01*
X121849159Y-88127000D01*
X123150841Y-88127000D01*
X123376792Y-89030802D01*
X123385168Y-89054247D01*
X123397958Y-89075607D01*
X123414669Y-89094062D01*
X123434659Y-89108902D01*
X123457160Y-89119556D01*
X123481308Y-89125617D01*
X123500000Y-89127000D01*
X124800000Y-89127000D01*
X124824776Y-89124560D01*
X124848601Y-89117333D01*
X124870557Y-89105597D01*
X124889803Y-89089803D01*
X124905597Y-89070557D01*
X124917333Y-89048601D01*
X124924951Y-89022718D01*
X125105991Y-88027000D01*
X125894009Y-88027000D01*
X126075049Y-89022718D01*
X126081882Y-89046659D01*
X126093254Y-89068806D01*
X126108728Y-89088309D01*
X126127710Y-89104418D01*
X126149470Y-89116515D01*
X126173172Y-89124134D01*
X126200000Y-89127000D01*
X131200000Y-89127000D01*
X131224776Y-89124560D01*
X131248601Y-89117333D01*
X131270557Y-89105597D01*
X131289803Y-89089803D01*
X131305597Y-89070557D01*
X131317333Y-89048601D01*
X131321644Y-89036493D01*
X131594492Y-88127000D01*
X132905508Y-88127000D01*
X133178356Y-89036493D01*
X133187813Y-89059524D01*
X133201581Y-89080266D01*
X133219131Y-89097925D01*
X133239789Y-89111820D01*
X133262761Y-89121418D01*
X133287164Y-89126350D01*
X133300000Y-89127000D01*
X134600000Y-89127000D01*
X134624776Y-89124560D01*
X134648601Y-89117333D01*
X134670557Y-89105597D01*
X134689803Y-89089803D01*
X134705597Y-89070557D01*
X134717333Y-89048601D01*
X134725835Y-89017159D01*
X134860857Y-88027000D01*
X135639143Y-88027000D01*
X135774165Y-89017159D01*
X135779930Y-89041379D01*
X135790310Y-89064008D01*
X135804905Y-89084178D01*
X135823154Y-89101113D01*
X135844357Y-89114162D01*
X135867698Y-89122823D01*
X135900000Y-89127000D01*
X156090000Y-89127000D01*
X156090000Y-90935056D01*
X148916143Y-96740217D01*
X95100482Y-96790000D01*
X91333590Y-96790000D01*
X87622954Y-93787314D01*
X90232905Y-93787314D01*
X90232905Y-94312686D01*
X90335400Y-94827963D01*
X90536451Y-95313343D01*
X90828332Y-95750174D01*
X91199826Y-96121668D01*
X91636657Y-96413549D01*
X92122037Y-96614600D01*
X92637314Y-96717095D01*
X93162686Y-96717095D01*
X93677963Y-96614600D01*
X94163343Y-96413549D01*
X94600174Y-96121668D01*
X94971668Y-95750174D01*
X95263549Y-95313343D01*
X95464600Y-94827963D01*
X95567095Y-94312686D01*
X95567095Y-93787314D01*
X95557150Y-93737314D01*
X144682905Y-93737314D01*
X144682905Y-94262686D01*
X144785400Y-94777963D01*
X144986451Y-95263343D01*
X145278332Y-95700174D01*
X145649826Y-96071668D01*
X146086657Y-96363549D01*
X146572037Y-96564600D01*
X147087314Y-96667095D01*
X147612686Y-96667095D01*
X148127963Y-96564600D01*
X148613343Y-96363549D01*
X149050174Y-96071668D01*
X149421668Y-95700174D01*
X149713549Y-95263343D01*
X149914600Y-94777963D01*
X150017095Y-94262686D01*
X150017095Y-93737314D01*
X149914600Y-93222037D01*
X149713549Y-92736657D01*
X149421668Y-92299826D01*
X149050174Y-91928332D01*
X148613343Y-91636451D01*
X148127963Y-91435400D01*
X147612686Y-91332905D01*
X147087314Y-91332905D01*
X146572037Y-91435400D01*
X146086657Y-91636451D01*
X145649826Y-91928332D01*
X145278332Y-92299826D01*
X144986451Y-92736657D01*
X144785400Y-93222037D01*
X144682905Y-93737314D01*
X95557150Y-93737314D01*
X95464600Y-93272037D01*
X95263549Y-92786657D01*
X94971668Y-92349826D01*
X94600174Y-91978332D01*
X94163343Y-91686451D01*
X93677963Y-91485400D01*
X93162686Y-91382905D01*
X92637314Y-91382905D01*
X92122037Y-91485400D01*
X91636657Y-91686451D01*
X91199826Y-91978332D01*
X90828332Y-92349826D01*
X90536451Y-92786657D01*
X90335400Y-93272037D01*
X90232905Y-93787314D01*
X87622954Y-93787314D01*
X84160000Y-90985056D01*
X84160000Y-89127000D01*
X102500000Y-89127000D01*
X102524776Y-89124560D01*
X102548601Y-89117333D01*
X102570557Y-89105597D01*
X102589803Y-89089803D01*
X102605597Y-89070557D01*
X102617333Y-89048601D01*
X102623208Y-89030802D01*
X102849159Y-88127000D01*
X104150841Y-88127000D01*
X104376792Y-89030802D01*
X104385168Y-89054247D01*
X104397958Y-89075607D01*
X104414669Y-89094062D01*
X104434659Y-89108902D01*
X104457160Y-89119556D01*
X104481308Y-89125617D01*
X104500000Y-89127000D01*
X105500000Y-89127000D01*
X105524776Y-89124560D01*
X105548601Y-89117333D01*
X105570557Y-89105597D01*
X105589803Y-89089803D01*
X105605597Y-89070557D01*
X105617333Y-89048601D01*
X105624715Y-89023984D01*
X105854904Y-87827000D01*
X106645096Y-87827000D01*
X106875285Y-89023984D01*
G37*
%TD.AperFunction*%
%TD*%
M02*
