%TF.GenerationSoftware,KiCad,Pcbnew,(5.1.8)-1*%
%TF.CreationDate,2021-01-19T18:41:25+01:00*%
%TF.ProjectId,PAD_2021.01_FiltroNOAA_v1,5041445f-3230-4323-912e-30315f46696c,rev?*%
%TF.SameCoordinates,Original*%
%TF.FileFunction,Legend,Bot*%
%TF.FilePolarity,Positive*%
%FSLAX46Y46*%
G04 Gerber Fmt 4.6, Leading zero omitted, Abs format (unit mm)*
G04 Created by KiCad (PCBNEW (5.1.8)-1) date 2021-01-19 18:41:25*
%MOMM*%
%LPD*%
G01*
G04 APERTURE LIST*
%ADD10C,0.100000*%
%ADD11C,0.300000*%
%ADD12C,0.150000*%
G04 APERTURE END LIST*
D10*
X98221428Y-96257142D02*
X98021428Y-96257142D01*
X97935714Y-96571428D02*
X98221428Y-96571428D01*
X98221428Y-95971428D01*
X97935714Y-95971428D01*
X97707142Y-96400000D02*
X97421428Y-96400000D01*
X97764285Y-96571428D02*
X97564285Y-95971428D01*
X97364285Y-96571428D01*
X96850000Y-96571428D02*
X97192857Y-96571428D01*
X97021428Y-96571428D02*
X97021428Y-95971428D01*
X97078571Y-96057142D01*
X97135714Y-96114285D01*
X97192857Y-96142857D01*
X96392857Y-96257142D02*
X96592857Y-96257142D01*
X96592857Y-96571428D02*
X96592857Y-95971428D01*
X96307142Y-95971428D01*
X96078571Y-96571428D02*
X96078571Y-95971428D01*
X95792857Y-96571428D02*
X95792857Y-95971428D01*
X95650000Y-95971428D01*
X95564285Y-96000000D01*
X95507142Y-96057142D01*
X95478571Y-96114285D01*
X95450000Y-96228571D01*
X95450000Y-96314285D01*
X95478571Y-96428571D01*
X95507142Y-96485714D01*
X95564285Y-96542857D01*
X95650000Y-96571428D01*
X95792857Y-96571428D01*
X144592857Y-96421428D02*
X144592857Y-96021428D01*
X144592857Y-96078571D02*
X144564285Y-96050000D01*
X144507142Y-96021428D01*
X144421428Y-96021428D01*
X144364285Y-96050000D01*
X144335714Y-96107142D01*
X144335714Y-96421428D01*
X144335714Y-96107142D02*
X144307142Y-96050000D01*
X144250000Y-96021428D01*
X144164285Y-96021428D01*
X144107142Y-96050000D01*
X144078571Y-96107142D01*
X144078571Y-96421428D01*
X143535714Y-96421428D02*
X143535714Y-96107142D01*
X143564285Y-96050000D01*
X143621428Y-96021428D01*
X143735714Y-96021428D01*
X143792857Y-96050000D01*
X143535714Y-96392857D02*
X143592857Y-96421428D01*
X143735714Y-96421428D01*
X143792857Y-96392857D01*
X143821428Y-96335714D01*
X143821428Y-96278571D01*
X143792857Y-96221428D01*
X143735714Y-96192857D01*
X143592857Y-96192857D01*
X143535714Y-96164285D01*
X143250000Y-96421428D02*
X143250000Y-96021428D01*
X143250000Y-96078571D02*
X143221428Y-96050000D01*
X143164285Y-96021428D01*
X143078571Y-96021428D01*
X143021428Y-96050000D01*
X142992857Y-96107142D01*
X142992857Y-96421428D01*
X142992857Y-96107142D02*
X142964285Y-96050000D01*
X142907142Y-96021428D01*
X142821428Y-96021428D01*
X142764285Y-96050000D01*
X142735714Y-96107142D01*
X142735714Y-96421428D01*
X142192857Y-96421428D02*
X142192857Y-96107142D01*
X142221428Y-96050000D01*
X142278571Y-96021428D01*
X142392857Y-96021428D01*
X142450000Y-96050000D01*
X142192857Y-96392857D02*
X142250000Y-96421428D01*
X142392857Y-96421428D01*
X142450000Y-96392857D01*
X142478571Y-96335714D01*
X142478571Y-96278571D01*
X142450000Y-96221428D01*
X142392857Y-96192857D01*
X142250000Y-96192857D01*
X142192857Y-96164285D01*
X141650000Y-96421428D02*
X141650000Y-95821428D01*
X141650000Y-96392857D02*
X141707142Y-96421428D01*
X141821428Y-96421428D01*
X141878571Y-96392857D01*
X141907142Y-96364285D01*
X141935714Y-96307142D01*
X141935714Y-96135714D01*
X141907142Y-96078571D01*
X141878571Y-96050000D01*
X141821428Y-96021428D01*
X141707142Y-96021428D01*
X141650000Y-96050000D01*
X141278571Y-96421428D02*
X141335714Y-96392857D01*
X141364285Y-96364285D01*
X141392857Y-96307142D01*
X141392857Y-96135714D01*
X141364285Y-96078571D01*
X141335714Y-96050000D01*
X141278571Y-96021428D01*
X141192857Y-96021428D01*
X141135714Y-96050000D01*
X141107142Y-96078571D01*
X141078571Y-96135714D01*
X141078571Y-96307142D01*
X141107142Y-96364285D01*
X141135714Y-96392857D01*
X141192857Y-96421428D01*
X141278571Y-96421428D01*
D11*
X130538095Y-84504761D02*
X131204761Y-83552380D01*
X131680952Y-84504761D02*
X131680952Y-82504761D01*
X130919047Y-82504761D01*
X130728571Y-82600000D01*
X130633333Y-82695238D01*
X130538095Y-82885714D01*
X130538095Y-83171428D01*
X130633333Y-83361904D01*
X130728571Y-83457142D01*
X130919047Y-83552380D01*
X131680952Y-83552380D01*
X128823809Y-84504761D02*
X128823809Y-83457142D01*
X128919047Y-83266666D01*
X129109523Y-83171428D01*
X129490476Y-83171428D01*
X129680952Y-83266666D01*
X128823809Y-84409523D02*
X129014285Y-84504761D01*
X129490476Y-84504761D01*
X129680952Y-84409523D01*
X129776190Y-84219047D01*
X129776190Y-84028571D01*
X129680952Y-83838095D01*
X129490476Y-83742857D01*
X129014285Y-83742857D01*
X128823809Y-83647619D01*
X127014285Y-84504761D02*
X127014285Y-82504761D01*
X127014285Y-84409523D02*
X127204761Y-84504761D01*
X127585714Y-84504761D01*
X127776190Y-84409523D01*
X127871428Y-84314285D01*
X127966666Y-84123809D01*
X127966666Y-83552380D01*
X127871428Y-83361904D01*
X127776190Y-83266666D01*
X127585714Y-83171428D01*
X127204761Y-83171428D01*
X127014285Y-83266666D01*
X126061904Y-84504761D02*
X126061904Y-83171428D01*
X126061904Y-82504761D02*
X126157142Y-82600000D01*
X126061904Y-82695238D01*
X125966666Y-82600000D01*
X126061904Y-82504761D01*
X126061904Y-82695238D01*
X124823809Y-84504761D02*
X125014285Y-84409523D01*
X125109523Y-84314285D01*
X125204761Y-84123809D01*
X125204761Y-83552380D01*
X125109523Y-83361904D01*
X125014285Y-83266666D01*
X124823809Y-83171428D01*
X124538095Y-83171428D01*
X124347619Y-83266666D01*
X124252380Y-83361904D01*
X124157142Y-83552380D01*
X124157142Y-84123809D01*
X124252380Y-84314285D01*
X124347619Y-84409523D01*
X124538095Y-84504761D01*
X124823809Y-84504761D01*
X122157142Y-84314285D02*
X122252380Y-84409523D01*
X122538095Y-84504761D01*
X122728571Y-84504761D01*
X123014285Y-84409523D01*
X123204761Y-84219047D01*
X123300000Y-84028571D01*
X123395238Y-83647619D01*
X123395238Y-83361904D01*
X123300000Y-82980952D01*
X123204761Y-82790476D01*
X123014285Y-82600000D01*
X122728571Y-82504761D01*
X122538095Y-82504761D01*
X122252380Y-82600000D01*
X122157142Y-82695238D01*
X121014285Y-84504761D02*
X121204761Y-84409523D01*
X121300000Y-84219047D01*
X121300000Y-82504761D01*
X119395238Y-83171428D02*
X119395238Y-84504761D01*
X120252380Y-83171428D02*
X120252380Y-84219047D01*
X120157142Y-84409523D01*
X119966666Y-84504761D01*
X119680952Y-84504761D01*
X119490476Y-84409523D01*
X119395238Y-84314285D01*
X118442857Y-84504761D02*
X118442857Y-82504761D01*
X118442857Y-83266666D02*
X118252380Y-83171428D01*
X117871428Y-83171428D01*
X117680952Y-83266666D01*
X117585714Y-83361904D01*
X117490476Y-83552380D01*
X117490476Y-84123809D01*
X117585714Y-84314285D01*
X117680952Y-84409523D01*
X117871428Y-84504761D01*
X118252380Y-84504761D01*
X118442857Y-84409523D01*
X115109523Y-83457142D02*
X114442857Y-83457142D01*
X114157142Y-84504761D02*
X115109523Y-84504761D01*
X115109523Y-82504761D01*
X114157142Y-82504761D01*
X113300000Y-84314285D02*
X113204761Y-84409523D01*
X113300000Y-84504761D01*
X113395238Y-84409523D01*
X113300000Y-84314285D01*
X113300000Y-84504761D01*
X112347619Y-84504761D02*
X112347619Y-82504761D01*
X111395238Y-84314285D02*
X111300000Y-84409523D01*
X111395238Y-84504761D01*
X111490476Y-84409523D01*
X111395238Y-84314285D01*
X111395238Y-84504761D01*
X110728571Y-82504761D02*
X109585714Y-82504761D01*
X110157142Y-84504761D02*
X110157142Y-82504761D01*
X108919047Y-84314285D02*
X108823809Y-84409523D01*
X108919047Y-84504761D01*
X109014285Y-84409523D01*
X108919047Y-84314285D01*
X108919047Y-84504761D01*
X125300000Y-86757142D02*
X124633333Y-86757142D01*
X124347619Y-87804761D02*
X125300000Y-87804761D01*
X125300000Y-85804761D01*
X124347619Y-85804761D01*
X123585714Y-87233333D02*
X122633333Y-87233333D01*
X123776190Y-87804761D02*
X123109523Y-85804761D01*
X122442857Y-87804761D01*
X120919047Y-86471428D02*
X120919047Y-87804761D01*
X121395238Y-85709523D02*
X121871428Y-87138095D01*
X120633333Y-87138095D01*
X118728571Y-87804761D02*
X119395238Y-86852380D01*
X119871428Y-87804761D02*
X119871428Y-85804761D01*
X119109523Y-85804761D01*
X118919047Y-85900000D01*
X118823809Y-85995238D01*
X118728571Y-86185714D01*
X118728571Y-86471428D01*
X118823809Y-86661904D01*
X118919047Y-86757142D01*
X119109523Y-86852380D01*
X119871428Y-86852380D01*
X116728571Y-87614285D02*
X116823809Y-87709523D01*
X117109523Y-87804761D01*
X117300000Y-87804761D01*
X117585714Y-87709523D01*
X117776190Y-87519047D01*
X117871428Y-87328571D01*
X117966666Y-86947619D01*
X117966666Y-86661904D01*
X117871428Y-86280952D01*
X117776190Y-86090476D01*
X117585714Y-85900000D01*
X117300000Y-85804761D01*
X117109523Y-85804761D01*
X116823809Y-85900000D01*
X116728571Y-85995238D01*
X116157142Y-85804761D02*
X115014285Y-85804761D01*
X115585714Y-87804761D02*
X115585714Y-85804761D01*
D10*
X124566666Y-90266666D02*
X124166666Y-90266666D01*
X124366666Y-90966666D02*
X124366666Y-90266666D01*
X123933333Y-90966666D02*
X123933333Y-90500000D01*
X123933333Y-90266666D02*
X123966666Y-90300000D01*
X123933333Y-90333333D01*
X123900000Y-90300000D01*
X123933333Y-90266666D01*
X123933333Y-90333333D01*
X123600000Y-90500000D02*
X123600000Y-91200000D01*
X123600000Y-90533333D02*
X123533333Y-90500000D01*
X123400000Y-90500000D01*
X123333333Y-90533333D01*
X123300000Y-90566666D01*
X123266666Y-90633333D01*
X123266666Y-90833333D01*
X123300000Y-90900000D01*
X123333333Y-90933333D01*
X123400000Y-90966666D01*
X123533333Y-90966666D01*
X123600000Y-90933333D01*
X122866666Y-90966666D02*
X122933333Y-90933333D01*
X122966666Y-90900000D01*
X123000000Y-90833333D01*
X123000000Y-90633333D01*
X122966666Y-90566666D01*
X122933333Y-90533333D01*
X122866666Y-90500000D01*
X122766666Y-90500000D01*
X122700000Y-90533333D01*
X122666666Y-90566666D01*
X122633333Y-90633333D01*
X122633333Y-90833333D01*
X122666666Y-90900000D01*
X122700000Y-90933333D01*
X122766666Y-90966666D01*
X122866666Y-90966666D01*
X122333333Y-90900000D02*
X122300000Y-90933333D01*
X122333333Y-90966666D01*
X122366666Y-90933333D01*
X122333333Y-90900000D01*
X122333333Y-90966666D01*
X122333333Y-90533333D02*
X122300000Y-90566666D01*
X122333333Y-90600000D01*
X122366666Y-90566666D01*
X122333333Y-90533333D01*
X122333333Y-90600000D01*
X121566666Y-90266666D02*
X121166666Y-90266666D01*
X121366666Y-90966666D02*
X121366666Y-90266666D01*
X120633333Y-90933333D02*
X120700000Y-90966666D01*
X120833333Y-90966666D01*
X120900000Y-90933333D01*
X120933333Y-90900000D01*
X120966666Y-90833333D01*
X120966666Y-90633333D01*
X120933333Y-90566666D01*
X120900000Y-90533333D01*
X120833333Y-90500000D01*
X120700000Y-90500000D01*
X120633333Y-90533333D01*
X120333333Y-90966666D02*
X120333333Y-90266666D01*
X120033333Y-90966666D02*
X120033333Y-90600000D01*
X120066666Y-90533333D01*
X120133333Y-90500000D01*
X120233333Y-90500000D01*
X120300000Y-90533333D01*
X120333333Y-90566666D01*
X119433333Y-90933333D02*
X119500000Y-90966666D01*
X119633333Y-90966666D01*
X119700000Y-90933333D01*
X119733333Y-90866666D01*
X119733333Y-90600000D01*
X119700000Y-90533333D01*
X119633333Y-90500000D01*
X119500000Y-90500000D01*
X119433333Y-90533333D01*
X119400000Y-90600000D01*
X119400000Y-90666666D01*
X119733333Y-90733333D01*
X119100000Y-90966666D02*
X119100000Y-90266666D01*
X119100000Y-90533333D02*
X119033333Y-90500000D01*
X118900000Y-90500000D01*
X118833333Y-90533333D01*
X118800000Y-90566666D01*
X118766666Y-90633333D01*
X118766666Y-90833333D01*
X118800000Y-90900000D01*
X118833333Y-90933333D01*
X118900000Y-90966666D01*
X119033333Y-90966666D01*
X119100000Y-90933333D01*
X118533333Y-90500000D02*
X118366666Y-90966666D01*
X118200000Y-90500000D02*
X118366666Y-90966666D01*
X118433333Y-91133333D01*
X118466666Y-91166666D01*
X118533333Y-91200000D01*
X117966666Y-90933333D02*
X117900000Y-90966666D01*
X117766666Y-90966666D01*
X117700000Y-90933333D01*
X117666666Y-90866666D01*
X117666666Y-90833333D01*
X117700000Y-90766666D01*
X117766666Y-90733333D01*
X117866666Y-90733333D01*
X117933333Y-90700000D01*
X117966666Y-90633333D01*
X117966666Y-90600000D01*
X117933333Y-90533333D01*
X117866666Y-90500000D01*
X117766666Y-90500000D01*
X117700000Y-90533333D01*
X117366666Y-90966666D02*
X117366666Y-90266666D01*
X117066666Y-90966666D02*
X117066666Y-90600000D01*
X117100000Y-90533333D01*
X117166666Y-90500000D01*
X117266666Y-90500000D01*
X117333333Y-90533333D01*
X117366666Y-90566666D01*
X116466666Y-90933333D02*
X116533333Y-90966666D01*
X116666666Y-90966666D01*
X116733333Y-90933333D01*
X116766666Y-90866666D01*
X116766666Y-90600000D01*
X116733333Y-90533333D01*
X116666666Y-90500000D01*
X116533333Y-90500000D01*
X116466666Y-90533333D01*
X116433333Y-90600000D01*
X116433333Y-90666666D01*
X116766666Y-90733333D01*
X116200000Y-90500000D02*
X116033333Y-90966666D01*
X115866666Y-90500000D01*
X129566666Y-91750000D02*
X129466666Y-91783333D01*
X129433333Y-91816666D01*
X129400000Y-91883333D01*
X129400000Y-91983333D01*
X129433333Y-92050000D01*
X129466666Y-92083333D01*
X129533333Y-92116666D01*
X129800000Y-92116666D01*
X129800000Y-91416666D01*
X129566666Y-91416666D01*
X129500000Y-91450000D01*
X129466666Y-91483333D01*
X129433333Y-91550000D01*
X129433333Y-91616666D01*
X129466666Y-91683333D01*
X129500000Y-91716666D01*
X129566666Y-91750000D01*
X129800000Y-91750000D01*
X128800000Y-92116666D02*
X128800000Y-91750000D01*
X128833333Y-91683333D01*
X128900000Y-91650000D01*
X129033333Y-91650000D01*
X129100000Y-91683333D01*
X128800000Y-92083333D02*
X128866666Y-92116666D01*
X129033333Y-92116666D01*
X129100000Y-92083333D01*
X129133333Y-92016666D01*
X129133333Y-91950000D01*
X129100000Y-91883333D01*
X129033333Y-91850000D01*
X128866666Y-91850000D01*
X128800000Y-91816666D01*
X128466666Y-91650000D02*
X128466666Y-92116666D01*
X128466666Y-91716666D02*
X128433333Y-91683333D01*
X128366666Y-91650000D01*
X128266666Y-91650000D01*
X128200000Y-91683333D01*
X128166666Y-91750000D01*
X128166666Y-92116666D01*
X127533333Y-92116666D02*
X127533333Y-91416666D01*
X127533333Y-92083333D02*
X127600000Y-92116666D01*
X127733333Y-92116666D01*
X127800000Y-92083333D01*
X127833333Y-92050000D01*
X127866666Y-91983333D01*
X127866666Y-91783333D01*
X127833333Y-91716666D01*
X127800000Y-91683333D01*
X127733333Y-91650000D01*
X127600000Y-91650000D01*
X127533333Y-91683333D01*
X126900000Y-92116666D02*
X126900000Y-91750000D01*
X126933333Y-91683333D01*
X127000000Y-91650000D01*
X127133333Y-91650000D01*
X127200000Y-91683333D01*
X126900000Y-92083333D02*
X126966666Y-92116666D01*
X127133333Y-92116666D01*
X127200000Y-92083333D01*
X127233333Y-92016666D01*
X127233333Y-91950000D01*
X127200000Y-91883333D01*
X127133333Y-91850000D01*
X126966666Y-91850000D01*
X126900000Y-91816666D01*
X125733333Y-92116666D02*
X125733333Y-91416666D01*
X125733333Y-92083333D02*
X125800000Y-92116666D01*
X125933333Y-92116666D01*
X126000000Y-92083333D01*
X126033333Y-92050000D01*
X126066666Y-91983333D01*
X126066666Y-91783333D01*
X126033333Y-91716666D01*
X126000000Y-91683333D01*
X125933333Y-91650000D01*
X125800000Y-91650000D01*
X125733333Y-91683333D01*
X125133333Y-92083333D02*
X125200000Y-92116666D01*
X125333333Y-92116666D01*
X125400000Y-92083333D01*
X125433333Y-92016666D01*
X125433333Y-91750000D01*
X125400000Y-91683333D01*
X125333333Y-91650000D01*
X125200000Y-91650000D01*
X125133333Y-91683333D01*
X125100000Y-91750000D01*
X125100000Y-91816666D01*
X125433333Y-91883333D01*
X124266666Y-91650000D02*
X124266666Y-92350000D01*
X124266666Y-91683333D02*
X124200000Y-91650000D01*
X124066666Y-91650000D01*
X124000000Y-91683333D01*
X123966666Y-91716666D01*
X123933333Y-91783333D01*
X123933333Y-91983333D01*
X123966666Y-92050000D01*
X124000000Y-92083333D01*
X124066666Y-92116666D01*
X124200000Y-92116666D01*
X124266666Y-92083333D01*
X123333333Y-92116666D02*
X123333333Y-91750000D01*
X123366666Y-91683333D01*
X123433333Y-91650000D01*
X123566666Y-91650000D01*
X123633333Y-91683333D01*
X123333333Y-92083333D02*
X123400000Y-92116666D01*
X123566666Y-92116666D01*
X123633333Y-92083333D01*
X123666666Y-92016666D01*
X123666666Y-91950000D01*
X123633333Y-91883333D01*
X123566666Y-91850000D01*
X123400000Y-91850000D01*
X123333333Y-91816666D01*
X123033333Y-92083333D02*
X122966666Y-92116666D01*
X122833333Y-92116666D01*
X122766666Y-92083333D01*
X122733333Y-92016666D01*
X122733333Y-91983333D01*
X122766666Y-91916666D01*
X122833333Y-91883333D01*
X122933333Y-91883333D01*
X123000000Y-91850000D01*
X123033333Y-91783333D01*
X123033333Y-91750000D01*
X123000000Y-91683333D01*
X122933333Y-91650000D01*
X122833333Y-91650000D01*
X122766666Y-91683333D01*
X122333333Y-92116666D02*
X122400000Y-92083333D01*
X122433333Y-92050000D01*
X122466666Y-91983333D01*
X122466666Y-91783333D01*
X122433333Y-91716666D01*
X122400000Y-91683333D01*
X122333333Y-91650000D01*
X122233333Y-91650000D01*
X122166666Y-91683333D01*
X122133333Y-91716666D01*
X122100000Y-91783333D01*
X122100000Y-91983333D01*
X122133333Y-92050000D01*
X122166666Y-92083333D01*
X122233333Y-92116666D01*
X122333333Y-92116666D01*
X121800000Y-92050000D02*
X121766666Y-92083333D01*
X121800000Y-92116666D01*
X121833333Y-92083333D01*
X121800000Y-92050000D01*
X121800000Y-92116666D01*
X121800000Y-91683333D02*
X121766666Y-91716666D01*
X121800000Y-91750000D01*
X121833333Y-91716666D01*
X121800000Y-91683333D01*
X121800000Y-91750000D01*
X120566666Y-92116666D02*
X120966666Y-92116666D01*
X120766666Y-92116666D02*
X120766666Y-91416666D01*
X120833333Y-91516666D01*
X120900000Y-91583333D01*
X120966666Y-91616666D01*
X120300000Y-91483333D02*
X120266666Y-91450000D01*
X120200000Y-91416666D01*
X120033333Y-91416666D01*
X119966666Y-91450000D01*
X119933333Y-91483333D01*
X119900000Y-91550000D01*
X119900000Y-91616666D01*
X119933333Y-91716666D01*
X120333333Y-92116666D01*
X119900000Y-92116666D01*
X119266666Y-91416666D02*
X119600000Y-91416666D01*
X119633333Y-91750000D01*
X119600000Y-91716666D01*
X119533333Y-91683333D01*
X119366666Y-91683333D01*
X119300000Y-91716666D01*
X119266666Y-91750000D01*
X119233333Y-91816666D01*
X119233333Y-91983333D01*
X119266666Y-92050000D01*
X119300000Y-92083333D01*
X119366666Y-92116666D01*
X119533333Y-92116666D01*
X119600000Y-92083333D01*
X119633333Y-92050000D01*
X118933333Y-92116666D02*
X118933333Y-91416666D01*
X118700000Y-91916666D01*
X118466666Y-91416666D01*
X118466666Y-92116666D01*
X118133333Y-92116666D02*
X118133333Y-91416666D01*
X118133333Y-91750000D02*
X117733333Y-91750000D01*
X117733333Y-92116666D02*
X117733333Y-91416666D01*
X117466666Y-91650000D02*
X117100000Y-91650000D01*
X117466666Y-92116666D01*
X117100000Y-92116666D01*
X116300000Y-91850000D02*
X115766666Y-91850000D01*
X114533333Y-92116666D02*
X114933333Y-92116666D01*
X114733333Y-92116666D02*
X114733333Y-91416666D01*
X114800000Y-91516666D01*
X114866666Y-91583333D01*
X114933333Y-91616666D01*
X113900000Y-91416666D02*
X114233333Y-91416666D01*
X114266666Y-91750000D01*
X114233333Y-91716666D01*
X114166666Y-91683333D01*
X114000000Y-91683333D01*
X113933333Y-91716666D01*
X113900000Y-91750000D01*
X113866666Y-91816666D01*
X113866666Y-91983333D01*
X113900000Y-92050000D01*
X113933333Y-92083333D01*
X114000000Y-92116666D01*
X114166666Y-92116666D01*
X114233333Y-92083333D01*
X114266666Y-92050000D01*
X113433333Y-91416666D02*
X113366666Y-91416666D01*
X113300000Y-91450000D01*
X113266666Y-91483333D01*
X113233333Y-91550000D01*
X113200000Y-91683333D01*
X113200000Y-91850000D01*
X113233333Y-91983333D01*
X113266666Y-92050000D01*
X113300000Y-92083333D01*
X113366666Y-92116666D01*
X113433333Y-92116666D01*
X113500000Y-92083333D01*
X113533333Y-92050000D01*
X113566666Y-91983333D01*
X113600000Y-91850000D01*
X113600000Y-91683333D01*
X113566666Y-91550000D01*
X113533333Y-91483333D01*
X113500000Y-91450000D01*
X113433333Y-91416666D01*
X112366666Y-92116666D02*
X112366666Y-91416666D01*
X112133333Y-91916666D01*
X111900000Y-91416666D01*
X111900000Y-92116666D01*
X111566666Y-92116666D02*
X111566666Y-91416666D01*
X111566666Y-91750000D02*
X111166666Y-91750000D01*
X111166666Y-92116666D02*
X111166666Y-91416666D01*
X110900000Y-91650000D02*
X110533333Y-91650000D01*
X110900000Y-92116666D01*
X110533333Y-92116666D01*
X126816666Y-93266666D02*
X126816666Y-92566666D01*
X126550000Y-92566666D01*
X126483333Y-92600000D01*
X126450000Y-92633333D01*
X126416666Y-92700000D01*
X126416666Y-92800000D01*
X126450000Y-92866666D01*
X126483333Y-92900000D01*
X126550000Y-92933333D01*
X126816666Y-92933333D01*
X125850000Y-93233333D02*
X125916666Y-93266666D01*
X126050000Y-93266666D01*
X126116666Y-93233333D01*
X126150000Y-93166666D01*
X126150000Y-92900000D01*
X126116666Y-92833333D01*
X126050000Y-92800000D01*
X125916666Y-92800000D01*
X125850000Y-92833333D01*
X125816666Y-92900000D01*
X125816666Y-92966666D01*
X126150000Y-93033333D01*
X125916666Y-92533333D02*
X126016666Y-92633333D01*
X125516666Y-93266666D02*
X125516666Y-92800000D01*
X125516666Y-92933333D02*
X125483333Y-92866666D01*
X125450000Y-92833333D01*
X125383333Y-92800000D01*
X125316666Y-92800000D01*
X124783333Y-93266666D02*
X124783333Y-92566666D01*
X124783333Y-93233333D02*
X124850000Y-93266666D01*
X124983333Y-93266666D01*
X125050000Y-93233333D01*
X125083333Y-93200000D01*
X125116666Y-93133333D01*
X125116666Y-92933333D01*
X125083333Y-92866666D01*
X125050000Y-92833333D01*
X124983333Y-92800000D01*
X124850000Y-92800000D01*
X124783333Y-92833333D01*
X124450000Y-93266666D02*
X124450000Y-92800000D01*
X124450000Y-92566666D02*
X124483333Y-92600000D01*
X124450000Y-92633333D01*
X124416666Y-92600000D01*
X124450000Y-92566666D01*
X124450000Y-92633333D01*
X123816666Y-93266666D02*
X123816666Y-92566666D01*
X123816666Y-93233333D02*
X123883333Y-93266666D01*
X124016666Y-93266666D01*
X124083333Y-93233333D01*
X124116666Y-93200000D01*
X124150000Y-93133333D01*
X124150000Y-92933333D01*
X124116666Y-92866666D01*
X124083333Y-92833333D01*
X124016666Y-92800000D01*
X123883333Y-92800000D01*
X123816666Y-92833333D01*
X123183333Y-93266666D02*
X123183333Y-92900000D01*
X123216666Y-92833333D01*
X123283333Y-92800000D01*
X123416666Y-92800000D01*
X123483333Y-92833333D01*
X123183333Y-93233333D02*
X123250000Y-93266666D01*
X123416666Y-93266666D01*
X123483333Y-93233333D01*
X123516666Y-93166666D01*
X123516666Y-93100000D01*
X123483333Y-93033333D01*
X123416666Y-93000000D01*
X123250000Y-93000000D01*
X123183333Y-92966666D01*
X122883333Y-93233333D02*
X122816666Y-93266666D01*
X122683333Y-93266666D01*
X122616666Y-93233333D01*
X122583333Y-93166666D01*
X122583333Y-93133333D01*
X122616666Y-93066666D01*
X122683333Y-93033333D01*
X122783333Y-93033333D01*
X122850000Y-93000000D01*
X122883333Y-92933333D01*
X122883333Y-92900000D01*
X122850000Y-92833333D01*
X122783333Y-92800000D01*
X122683333Y-92800000D01*
X122616666Y-92833333D01*
X121750000Y-93266666D02*
X121750000Y-92800000D01*
X121750000Y-92566666D02*
X121783333Y-92600000D01*
X121750000Y-92633333D01*
X121716666Y-92600000D01*
X121750000Y-92566666D01*
X121750000Y-92633333D01*
X121416666Y-92800000D02*
X121416666Y-93266666D01*
X121416666Y-92866666D02*
X121383333Y-92833333D01*
X121316666Y-92800000D01*
X121216666Y-92800000D01*
X121150000Y-92833333D01*
X121116666Y-92900000D01*
X121116666Y-93266666D01*
X120816666Y-93233333D02*
X120750000Y-93266666D01*
X120616666Y-93266666D01*
X120550000Y-93233333D01*
X120516666Y-93166666D01*
X120516666Y-93133333D01*
X120550000Y-93066666D01*
X120616666Y-93033333D01*
X120716666Y-93033333D01*
X120783333Y-93000000D01*
X120816666Y-92933333D01*
X120816666Y-92900000D01*
X120783333Y-92833333D01*
X120716666Y-92800000D01*
X120616666Y-92800000D01*
X120550000Y-92833333D01*
X119950000Y-93233333D02*
X120016666Y-93266666D01*
X120150000Y-93266666D01*
X120216666Y-93233333D01*
X120250000Y-93166666D01*
X120250000Y-92900000D01*
X120216666Y-92833333D01*
X120150000Y-92800000D01*
X120016666Y-92800000D01*
X119950000Y-92833333D01*
X119916666Y-92900000D01*
X119916666Y-92966666D01*
X120250000Y-93033333D01*
X119616666Y-93266666D02*
X119616666Y-92800000D01*
X119616666Y-92933333D02*
X119583333Y-92866666D01*
X119550000Y-92833333D01*
X119483333Y-92800000D01*
X119416666Y-92800000D01*
X118883333Y-93233333D02*
X118950000Y-93266666D01*
X119083333Y-93266666D01*
X119150000Y-93233333D01*
X119183333Y-93200000D01*
X119216666Y-93133333D01*
X119216666Y-92933333D01*
X119183333Y-92866666D01*
X119150000Y-92833333D01*
X119083333Y-92800000D01*
X118950000Y-92800000D01*
X118883333Y-92833333D01*
X118583333Y-93266666D02*
X118583333Y-92800000D01*
X118583333Y-92566666D02*
X118616666Y-92600000D01*
X118583333Y-92633333D01*
X118550000Y-92600000D01*
X118583333Y-92566666D01*
X118583333Y-92633333D01*
X118150000Y-93266666D02*
X118216666Y-93233333D01*
X118250000Y-93200000D01*
X118283333Y-93133333D01*
X118283333Y-92933333D01*
X118250000Y-92866666D01*
X118216666Y-92833333D01*
X118150000Y-92800000D01*
X118050000Y-92800000D01*
X117983333Y-92833333D01*
X117950000Y-92866666D01*
X117916666Y-92933333D01*
X117916666Y-93133333D01*
X117950000Y-93200000D01*
X117983333Y-93233333D01*
X118050000Y-93266666D01*
X118150000Y-93266666D01*
X118016666Y-92533333D02*
X118116666Y-92633333D01*
X117616666Y-92800000D02*
X117616666Y-93266666D01*
X117616666Y-92866666D02*
X117583333Y-92833333D01*
X117516666Y-92800000D01*
X117416666Y-92800000D01*
X117350000Y-92833333D01*
X117316666Y-92900000D01*
X117316666Y-93266666D01*
X116983333Y-93200000D02*
X116950000Y-93233333D01*
X116983333Y-93266666D01*
X117016666Y-93233333D01*
X116983333Y-93200000D01*
X116983333Y-93266666D01*
X116983333Y-92833333D02*
X116950000Y-92866666D01*
X116983333Y-92900000D01*
X117016666Y-92866666D01*
X116983333Y-92833333D01*
X116983333Y-92900000D01*
X115583333Y-92800000D02*
X116116666Y-93000000D01*
X115583333Y-93200000D01*
X114883333Y-93266666D02*
X115283333Y-93266666D01*
X115083333Y-93266666D02*
X115083333Y-92566666D01*
X115150000Y-92666666D01*
X115216666Y-92733333D01*
X115283333Y-92766666D01*
X114283333Y-93266666D02*
X114283333Y-92566666D01*
X114283333Y-93233333D02*
X114350000Y-93266666D01*
X114483333Y-93266666D01*
X114550000Y-93233333D01*
X114583333Y-93200000D01*
X114616666Y-93133333D01*
X114616666Y-92933333D01*
X114583333Y-92866666D01*
X114550000Y-92833333D01*
X114483333Y-92800000D01*
X114350000Y-92800000D01*
X114283333Y-92833333D01*
X113716666Y-92900000D02*
X113616666Y-92933333D01*
X113583333Y-92966666D01*
X113550000Y-93033333D01*
X113550000Y-93133333D01*
X113583333Y-93200000D01*
X113616666Y-93233333D01*
X113683333Y-93266666D01*
X113950000Y-93266666D01*
X113950000Y-92566666D01*
X113716666Y-92566666D01*
X113650000Y-92600000D01*
X113616666Y-92633333D01*
X113583333Y-92700000D01*
X113583333Y-92766666D01*
X113616666Y-92833333D01*
X113650000Y-92866666D01*
X113716666Y-92900000D01*
X113950000Y-92900000D01*
X128816666Y-94383333D02*
X128716666Y-94416666D01*
X128550000Y-94416666D01*
X128483333Y-94383333D01*
X128450000Y-94350000D01*
X128416666Y-94283333D01*
X128416666Y-94216666D01*
X128450000Y-94150000D01*
X128483333Y-94116666D01*
X128550000Y-94083333D01*
X128683333Y-94050000D01*
X128750000Y-94016666D01*
X128783333Y-93983333D01*
X128816666Y-93916666D01*
X128816666Y-93850000D01*
X128783333Y-93783333D01*
X128750000Y-93750000D01*
X128683333Y-93716666D01*
X128516666Y-93716666D01*
X128416666Y-93750000D01*
X127750000Y-94416666D02*
X128150000Y-94416666D01*
X127950000Y-94416666D02*
X127950000Y-93716666D01*
X128016666Y-93816666D01*
X128083333Y-93883333D01*
X128150000Y-93916666D01*
X127083333Y-94416666D02*
X127483333Y-94416666D01*
X127283333Y-94416666D02*
X127283333Y-93716666D01*
X127350000Y-93816666D01*
X127416666Y-93883333D01*
X127483333Y-93916666D01*
X125983333Y-94383333D02*
X126050000Y-94416666D01*
X126183333Y-94416666D01*
X126250000Y-94383333D01*
X126283333Y-94316666D01*
X126283333Y-94050000D01*
X126250000Y-93983333D01*
X126183333Y-93950000D01*
X126050000Y-93950000D01*
X125983333Y-93983333D01*
X125950000Y-94050000D01*
X125950000Y-94116666D01*
X126283333Y-94183333D01*
X125650000Y-93950000D02*
X125650000Y-94416666D01*
X125650000Y-94016666D02*
X125616666Y-93983333D01*
X125550000Y-93950000D01*
X125450000Y-93950000D01*
X125383333Y-93983333D01*
X125350000Y-94050000D01*
X125350000Y-94416666D01*
X124483333Y-94416666D02*
X124483333Y-93716666D01*
X124483333Y-93983333D02*
X124416666Y-93950000D01*
X124283333Y-93950000D01*
X124216666Y-93983333D01*
X124183333Y-94016666D01*
X124150000Y-94083333D01*
X124150000Y-94283333D01*
X124183333Y-94350000D01*
X124216666Y-94383333D01*
X124283333Y-94416666D01*
X124416666Y-94416666D01*
X124483333Y-94383333D01*
X123550000Y-94416666D02*
X123550000Y-94050000D01*
X123583333Y-93983333D01*
X123650000Y-93950000D01*
X123783333Y-93950000D01*
X123850000Y-93983333D01*
X123550000Y-94383333D02*
X123616666Y-94416666D01*
X123783333Y-94416666D01*
X123850000Y-94383333D01*
X123883333Y-94316666D01*
X123883333Y-94250000D01*
X123850000Y-94183333D01*
X123783333Y-94150000D01*
X123616666Y-94150000D01*
X123550000Y-94116666D01*
X123216666Y-93950000D02*
X123216666Y-94416666D01*
X123216666Y-94016666D02*
X123183333Y-93983333D01*
X123116666Y-93950000D01*
X123016666Y-93950000D01*
X122950000Y-93983333D01*
X122916666Y-94050000D01*
X122916666Y-94416666D01*
X122283333Y-94416666D02*
X122283333Y-93716666D01*
X122283333Y-94383333D02*
X122350000Y-94416666D01*
X122483333Y-94416666D01*
X122550000Y-94383333D01*
X122583333Y-94350000D01*
X122616666Y-94283333D01*
X122616666Y-94083333D01*
X122583333Y-94016666D01*
X122550000Y-93983333D01*
X122483333Y-93950000D01*
X122350000Y-93950000D01*
X122283333Y-93983333D01*
X121650000Y-94416666D02*
X121650000Y-94050000D01*
X121683333Y-93983333D01*
X121750000Y-93950000D01*
X121883333Y-93950000D01*
X121950000Y-93983333D01*
X121650000Y-94383333D02*
X121716666Y-94416666D01*
X121883333Y-94416666D01*
X121950000Y-94383333D01*
X121983333Y-94316666D01*
X121983333Y-94250000D01*
X121950000Y-94183333D01*
X121883333Y-94150000D01*
X121716666Y-94150000D01*
X121650000Y-94116666D01*
X120483333Y-94416666D02*
X120483333Y-93716666D01*
X120483333Y-94383333D02*
X120550000Y-94416666D01*
X120683333Y-94416666D01*
X120750000Y-94383333D01*
X120783333Y-94350000D01*
X120816666Y-94283333D01*
X120816666Y-94083333D01*
X120783333Y-94016666D01*
X120750000Y-93983333D01*
X120683333Y-93950000D01*
X120550000Y-93950000D01*
X120483333Y-93983333D01*
X119883333Y-94383333D02*
X119950000Y-94416666D01*
X120083333Y-94416666D01*
X120150000Y-94383333D01*
X120183333Y-94316666D01*
X120183333Y-94050000D01*
X120150000Y-93983333D01*
X120083333Y-93950000D01*
X119950000Y-93950000D01*
X119883333Y-93983333D01*
X119850000Y-94050000D01*
X119850000Y-94116666D01*
X120183333Y-94183333D01*
X119016666Y-93950000D02*
X119016666Y-94650000D01*
X119016666Y-93983333D02*
X118950000Y-93950000D01*
X118816666Y-93950000D01*
X118750000Y-93983333D01*
X118716666Y-94016666D01*
X118683333Y-94083333D01*
X118683333Y-94283333D01*
X118716666Y-94350000D01*
X118750000Y-94383333D01*
X118816666Y-94416666D01*
X118950000Y-94416666D01*
X119016666Y-94383333D01*
X118083333Y-94416666D02*
X118083333Y-94050000D01*
X118116666Y-93983333D01*
X118183333Y-93950000D01*
X118316666Y-93950000D01*
X118383333Y-93983333D01*
X118083333Y-94383333D02*
X118150000Y-94416666D01*
X118316666Y-94416666D01*
X118383333Y-94383333D01*
X118416666Y-94316666D01*
X118416666Y-94250000D01*
X118383333Y-94183333D01*
X118316666Y-94150000D01*
X118150000Y-94150000D01*
X118083333Y-94116666D01*
X117783333Y-94383333D02*
X117716666Y-94416666D01*
X117583333Y-94416666D01*
X117516666Y-94383333D01*
X117483333Y-94316666D01*
X117483333Y-94283333D01*
X117516666Y-94216666D01*
X117583333Y-94183333D01*
X117683333Y-94183333D01*
X117750000Y-94150000D01*
X117783333Y-94083333D01*
X117783333Y-94050000D01*
X117750000Y-93983333D01*
X117683333Y-93950000D01*
X117583333Y-93950000D01*
X117516666Y-93983333D01*
X117083333Y-94416666D02*
X117150000Y-94383333D01*
X117183333Y-94350000D01*
X117216666Y-94283333D01*
X117216666Y-94083333D01*
X117183333Y-94016666D01*
X117150000Y-93983333D01*
X117083333Y-93950000D01*
X116983333Y-93950000D01*
X116916666Y-93983333D01*
X116883333Y-94016666D01*
X116850000Y-94083333D01*
X116850000Y-94283333D01*
X116883333Y-94350000D01*
X116916666Y-94383333D01*
X116983333Y-94416666D01*
X117083333Y-94416666D01*
X116550000Y-94350000D02*
X116516666Y-94383333D01*
X116550000Y-94416666D01*
X116583333Y-94383333D01*
X116550000Y-94350000D01*
X116550000Y-94416666D01*
X116550000Y-93983333D02*
X116516666Y-94016666D01*
X116550000Y-94050000D01*
X116583333Y-94016666D01*
X116550000Y-93983333D01*
X116550000Y-94050000D01*
X115150000Y-93950000D02*
X115683333Y-94150000D01*
X115150000Y-94350000D01*
X114816666Y-94150000D02*
X114283333Y-94150000D01*
X113583333Y-94416666D02*
X113983333Y-94416666D01*
X113783333Y-94416666D02*
X113783333Y-93716666D01*
X113850000Y-93816666D01*
X113916666Y-93883333D01*
X113983333Y-93916666D01*
X112950000Y-93716666D02*
X113283333Y-93716666D01*
X113316666Y-94050000D01*
X113283333Y-94016666D01*
X113216666Y-93983333D01*
X113050000Y-93983333D01*
X112983333Y-94016666D01*
X112950000Y-94050000D01*
X112916666Y-94116666D01*
X112916666Y-94283333D01*
X112950000Y-94350000D01*
X112983333Y-94383333D01*
X113050000Y-94416666D01*
X113216666Y-94416666D01*
X113283333Y-94383333D01*
X113316666Y-94350000D01*
X112316666Y-94416666D02*
X112316666Y-93716666D01*
X112316666Y-94383333D02*
X112383333Y-94416666D01*
X112516666Y-94416666D01*
X112583333Y-94383333D01*
X112616666Y-94350000D01*
X112650000Y-94283333D01*
X112650000Y-94083333D01*
X112616666Y-94016666D01*
X112583333Y-93983333D01*
X112516666Y-93950000D01*
X112383333Y-93950000D01*
X112316666Y-93983333D01*
X111750000Y-94050000D02*
X111650000Y-94083333D01*
X111616666Y-94116666D01*
X111583333Y-94183333D01*
X111583333Y-94283333D01*
X111616666Y-94350000D01*
X111650000Y-94383333D01*
X111716666Y-94416666D01*
X111983333Y-94416666D01*
X111983333Y-93716666D01*
X111750000Y-93716666D01*
X111683333Y-93750000D01*
X111650000Y-93783333D01*
X111616666Y-93850000D01*
X111616666Y-93916666D01*
X111650000Y-93983333D01*
X111683333Y-94016666D01*
X111750000Y-94050000D01*
X111983333Y-94050000D01*
X126866666Y-95566666D02*
X127100000Y-95233333D01*
X127266666Y-95566666D02*
X127266666Y-94866666D01*
X127000000Y-94866666D01*
X126933333Y-94900000D01*
X126900000Y-94933333D01*
X126866666Y-95000000D01*
X126866666Y-95100000D01*
X126900000Y-95166666D01*
X126933333Y-95200000D01*
X127000000Y-95233333D01*
X127266666Y-95233333D01*
X126300000Y-95533333D02*
X126366666Y-95566666D01*
X126500000Y-95566666D01*
X126566666Y-95533333D01*
X126600000Y-95466666D01*
X126600000Y-95200000D01*
X126566666Y-95133333D01*
X126500000Y-95100000D01*
X126366666Y-95100000D01*
X126300000Y-95133333D01*
X126266666Y-95200000D01*
X126266666Y-95266666D01*
X126600000Y-95333333D01*
X125666666Y-95533333D02*
X125733333Y-95566666D01*
X125866666Y-95566666D01*
X125933333Y-95533333D01*
X125966666Y-95500000D01*
X126000000Y-95433333D01*
X126000000Y-95233333D01*
X125966666Y-95166666D01*
X125933333Y-95133333D01*
X125866666Y-95100000D01*
X125733333Y-95100000D01*
X125666666Y-95133333D01*
X125366666Y-95566666D02*
X125366666Y-94866666D01*
X125066666Y-95566666D02*
X125066666Y-95200000D01*
X125100000Y-95133333D01*
X125166666Y-95100000D01*
X125266666Y-95100000D01*
X125333333Y-95133333D01*
X125366666Y-95166666D01*
X124433333Y-95566666D02*
X124433333Y-95200000D01*
X124466666Y-95133333D01*
X124533333Y-95100000D01*
X124666666Y-95100000D01*
X124733333Y-95133333D01*
X124433333Y-95533333D02*
X124500000Y-95566666D01*
X124666666Y-95566666D01*
X124733333Y-95533333D01*
X124766666Y-95466666D01*
X124766666Y-95400000D01*
X124733333Y-95333333D01*
X124666666Y-95300000D01*
X124500000Y-95300000D01*
X124433333Y-95266666D01*
X124166666Y-95100000D02*
X123800000Y-95100000D01*
X124166666Y-95566666D01*
X123800000Y-95566666D01*
X123433333Y-95566666D02*
X123500000Y-95533333D01*
X123533333Y-95500000D01*
X123566666Y-95433333D01*
X123566666Y-95233333D01*
X123533333Y-95166666D01*
X123500000Y-95133333D01*
X123433333Y-95100000D01*
X123333333Y-95100000D01*
X123266666Y-95133333D01*
X123233333Y-95166666D01*
X123200000Y-95233333D01*
X123200000Y-95433333D01*
X123233333Y-95500000D01*
X123266666Y-95533333D01*
X123333333Y-95566666D01*
X123433333Y-95566666D01*
X122133333Y-95200000D02*
X122033333Y-95233333D01*
X122000000Y-95266666D01*
X121966666Y-95333333D01*
X121966666Y-95433333D01*
X122000000Y-95500000D01*
X122033333Y-95533333D01*
X122100000Y-95566666D01*
X122366666Y-95566666D01*
X122366666Y-94866666D01*
X122133333Y-94866666D01*
X122066666Y-94900000D01*
X122033333Y-94933333D01*
X122000000Y-95000000D01*
X122000000Y-95066666D01*
X122033333Y-95133333D01*
X122066666Y-95166666D01*
X122133333Y-95200000D01*
X122366666Y-95200000D01*
X121366666Y-95566666D02*
X121366666Y-95200000D01*
X121400000Y-95133333D01*
X121466666Y-95100000D01*
X121600000Y-95100000D01*
X121666666Y-95133333D01*
X121366666Y-95533333D02*
X121433333Y-95566666D01*
X121600000Y-95566666D01*
X121666666Y-95533333D01*
X121700000Y-95466666D01*
X121700000Y-95400000D01*
X121666666Y-95333333D01*
X121600000Y-95300000D01*
X121433333Y-95300000D01*
X121366666Y-95266666D01*
X121033333Y-95100000D02*
X121033333Y-95566666D01*
X121033333Y-95166666D02*
X121000000Y-95133333D01*
X120933333Y-95100000D01*
X120833333Y-95100000D01*
X120766666Y-95133333D01*
X120733333Y-95200000D01*
X120733333Y-95566666D01*
X120100000Y-95566666D02*
X120100000Y-94866666D01*
X120100000Y-95533333D02*
X120166666Y-95566666D01*
X120300000Y-95566666D01*
X120366666Y-95533333D01*
X120400000Y-95500000D01*
X120433333Y-95433333D01*
X120433333Y-95233333D01*
X120400000Y-95166666D01*
X120366666Y-95133333D01*
X120300000Y-95100000D01*
X120166666Y-95100000D01*
X120100000Y-95133333D01*
X119466666Y-95566666D02*
X119466666Y-95200000D01*
X119500000Y-95133333D01*
X119566666Y-95100000D01*
X119700000Y-95100000D01*
X119766666Y-95133333D01*
X119466666Y-95533333D02*
X119533333Y-95566666D01*
X119700000Y-95566666D01*
X119766666Y-95533333D01*
X119800000Y-95466666D01*
X119800000Y-95400000D01*
X119766666Y-95333333D01*
X119700000Y-95300000D01*
X119533333Y-95300000D01*
X119466666Y-95266666D01*
X118366666Y-95200000D02*
X118600000Y-95200000D01*
X118600000Y-95566666D02*
X118600000Y-94866666D01*
X118266666Y-94866666D01*
X118000000Y-95566666D02*
X118000000Y-94866666D01*
X117766666Y-95366666D01*
X117533333Y-94866666D01*
X117533333Y-95566666D01*
X117200000Y-95500000D02*
X117166666Y-95533333D01*
X117200000Y-95566666D01*
X117233333Y-95533333D01*
X117200000Y-95500000D01*
X117200000Y-95566666D01*
X117200000Y-95133333D02*
X117166666Y-95166666D01*
X117200000Y-95200000D01*
X117233333Y-95166666D01*
X117200000Y-95133333D01*
X117200000Y-95200000D01*
X116333333Y-95100000D02*
X115800000Y-95300000D01*
X116333333Y-95500000D01*
X115166666Y-95100000D02*
X115166666Y-95566666D01*
X115333333Y-94833333D02*
X115500000Y-95333333D01*
X115066666Y-95333333D01*
X114466666Y-94866666D02*
X114800000Y-94866666D01*
X114833333Y-95200000D01*
X114800000Y-95166666D01*
X114733333Y-95133333D01*
X114566666Y-95133333D01*
X114500000Y-95166666D01*
X114466666Y-95200000D01*
X114433333Y-95266666D01*
X114433333Y-95433333D01*
X114466666Y-95500000D01*
X114500000Y-95533333D01*
X114566666Y-95566666D01*
X114733333Y-95566666D01*
X114800000Y-95533333D01*
X114833333Y-95500000D01*
X113833333Y-95566666D02*
X113833333Y-94866666D01*
X113833333Y-95533333D02*
X113900000Y-95566666D01*
X114033333Y-95566666D01*
X114100000Y-95533333D01*
X114133333Y-95500000D01*
X114166666Y-95433333D01*
X114166666Y-95233333D01*
X114133333Y-95166666D01*
X114100000Y-95133333D01*
X114033333Y-95100000D01*
X113900000Y-95100000D01*
X113833333Y-95133333D01*
X113266666Y-95200000D02*
X113166666Y-95233333D01*
X113133333Y-95266666D01*
X113100000Y-95333333D01*
X113100000Y-95433333D01*
X113133333Y-95500000D01*
X113166666Y-95533333D01*
X113233333Y-95566666D01*
X113500000Y-95566666D01*
X113500000Y-94866666D01*
X113266666Y-94866666D01*
X113200000Y-94900000D01*
X113166666Y-94933333D01*
X113133333Y-95000000D01*
X113133333Y-95066666D01*
X113166666Y-95133333D01*
X113200000Y-95166666D01*
X113266666Y-95200000D01*
X113500000Y-95200000D01*
D12*
X130583333Y-77478571D02*
X130916666Y-77478571D01*
X130916666Y-78002380D02*
X130916666Y-77002380D01*
X130440476Y-77002380D01*
X130059523Y-78002380D02*
X130059523Y-77335714D01*
X130059523Y-77002380D02*
X130107142Y-77050000D01*
X130059523Y-77097619D01*
X130011904Y-77050000D01*
X130059523Y-77002380D01*
X130059523Y-77097619D01*
X129440476Y-78002380D02*
X129535714Y-77954761D01*
X129583333Y-77859523D01*
X129583333Y-77002380D01*
X129202380Y-77335714D02*
X128821428Y-77335714D01*
X129059523Y-77002380D02*
X129059523Y-77859523D01*
X129011904Y-77954761D01*
X128916666Y-78002380D01*
X128821428Y-78002380D01*
X128488095Y-78002380D02*
X128488095Y-77335714D01*
X128488095Y-77526190D02*
X128440476Y-77430952D01*
X128392857Y-77383333D01*
X128297619Y-77335714D01*
X128202380Y-77335714D01*
X127726190Y-78002380D02*
X127821428Y-77954761D01*
X127869047Y-77907142D01*
X127916666Y-77811904D01*
X127916666Y-77526190D01*
X127869047Y-77430952D01*
X127821428Y-77383333D01*
X127726190Y-77335714D01*
X127583333Y-77335714D01*
X127488095Y-77383333D01*
X127440476Y-77430952D01*
X127392857Y-77526190D01*
X127392857Y-77811904D01*
X127440476Y-77907142D01*
X127488095Y-77954761D01*
X127583333Y-78002380D01*
X127726190Y-78002380D01*
X126202380Y-78002380D02*
X126202380Y-77002380D01*
X125821428Y-77002380D01*
X125726190Y-77050000D01*
X125678571Y-77097619D01*
X125630952Y-77192857D01*
X125630952Y-77335714D01*
X125678571Y-77430952D01*
X125726190Y-77478571D01*
X125821428Y-77526190D01*
X126202380Y-77526190D01*
X124773809Y-78002380D02*
X124773809Y-77478571D01*
X124821428Y-77383333D01*
X124916666Y-77335714D01*
X125107142Y-77335714D01*
X125202380Y-77383333D01*
X124773809Y-77954761D02*
X124869047Y-78002380D01*
X125107142Y-78002380D01*
X125202380Y-77954761D01*
X125250000Y-77859523D01*
X125250000Y-77764285D01*
X125202380Y-77669047D01*
X125107142Y-77621428D01*
X124869047Y-77621428D01*
X124773809Y-77573809D01*
X124345238Y-77954761D02*
X124250000Y-78002380D01*
X124059523Y-78002380D01*
X123964285Y-77954761D01*
X123916666Y-77859523D01*
X123916666Y-77811904D01*
X123964285Y-77716666D01*
X124059523Y-77669047D01*
X124202380Y-77669047D01*
X124297619Y-77621428D01*
X124345238Y-77526190D01*
X124345238Y-77478571D01*
X124297619Y-77383333D01*
X124202380Y-77335714D01*
X124059523Y-77335714D01*
X123964285Y-77383333D01*
X123345238Y-78002380D02*
X123440476Y-77954761D01*
X123488095Y-77907142D01*
X123535714Y-77811904D01*
X123535714Y-77526190D01*
X123488095Y-77430952D01*
X123440476Y-77383333D01*
X123345238Y-77335714D01*
X123202380Y-77335714D01*
X123107142Y-77383333D01*
X123059523Y-77430952D01*
X123011904Y-77526190D01*
X123011904Y-77811904D01*
X123059523Y-77907142D01*
X123107142Y-77954761D01*
X123202380Y-78002380D01*
X123345238Y-78002380D01*
X121488095Y-77478571D02*
X121345238Y-77526190D01*
X121297619Y-77573809D01*
X121250000Y-77669047D01*
X121250000Y-77811904D01*
X121297619Y-77907142D01*
X121345238Y-77954761D01*
X121440476Y-78002380D01*
X121821428Y-78002380D01*
X121821428Y-77002380D01*
X121488095Y-77002380D01*
X121392857Y-77050000D01*
X121345238Y-77097619D01*
X121297619Y-77192857D01*
X121297619Y-77288095D01*
X121345238Y-77383333D01*
X121392857Y-77430952D01*
X121488095Y-77478571D01*
X121821428Y-77478571D01*
X120392857Y-78002380D02*
X120392857Y-77478571D01*
X120440476Y-77383333D01*
X120535714Y-77335714D01*
X120726190Y-77335714D01*
X120821428Y-77383333D01*
X120392857Y-77954761D02*
X120488095Y-78002380D01*
X120726190Y-78002380D01*
X120821428Y-77954761D01*
X120869047Y-77859523D01*
X120869047Y-77764285D01*
X120821428Y-77669047D01*
X120726190Y-77621428D01*
X120488095Y-77621428D01*
X120392857Y-77573809D01*
X119916666Y-77335714D02*
X119916666Y-78002380D01*
X119916666Y-77430952D02*
X119869047Y-77383333D01*
X119773809Y-77335714D01*
X119630952Y-77335714D01*
X119535714Y-77383333D01*
X119488095Y-77478571D01*
X119488095Y-78002380D01*
X118583333Y-78002380D02*
X118583333Y-77002380D01*
X118583333Y-77954761D02*
X118678571Y-78002380D01*
X118869047Y-78002380D01*
X118964285Y-77954761D01*
X119011904Y-77907142D01*
X119059523Y-77811904D01*
X119059523Y-77526190D01*
X119011904Y-77430952D01*
X118964285Y-77383333D01*
X118869047Y-77335714D01*
X118678571Y-77335714D01*
X118583333Y-77383333D01*
X117678571Y-78002380D02*
X117678571Y-77478571D01*
X117726190Y-77383333D01*
X117821428Y-77335714D01*
X118011904Y-77335714D01*
X118107142Y-77383333D01*
X117678571Y-77954761D02*
X117773809Y-78002380D01*
X118011904Y-78002380D01*
X118107142Y-77954761D01*
X118154761Y-77859523D01*
X118154761Y-77764285D01*
X118107142Y-77669047D01*
X118011904Y-77621428D01*
X117773809Y-77621428D01*
X117678571Y-77573809D01*
X116488095Y-77097619D02*
X116440476Y-77050000D01*
X116345238Y-77002380D01*
X116107142Y-77002380D01*
X116011904Y-77050000D01*
X115964285Y-77097619D01*
X115916666Y-77192857D01*
X115916666Y-77288095D01*
X115964285Y-77430952D01*
X116535714Y-78002380D01*
X115916666Y-78002380D01*
X115488095Y-78002380D02*
X115488095Y-77335714D01*
X115488095Y-77430952D02*
X115440476Y-77383333D01*
X115345238Y-77335714D01*
X115202380Y-77335714D01*
X115107142Y-77383333D01*
X115059523Y-77478571D01*
X115059523Y-78002380D01*
X115059523Y-77478571D02*
X115011904Y-77383333D01*
X114916666Y-77335714D01*
X114773809Y-77335714D01*
X114678571Y-77383333D01*
X114630952Y-77478571D01*
X114630952Y-78002380D01*
X114154761Y-77621428D02*
X113392857Y-77621428D01*
X113773809Y-78002380D02*
X113773809Y-77240476D01*
X112916666Y-78002380D02*
X112916666Y-77002380D01*
X112345238Y-78002380D01*
X112345238Y-77002380D01*
X111678571Y-77002380D02*
X111488095Y-77002380D01*
X111392857Y-77050000D01*
X111297619Y-77145238D01*
X111250000Y-77335714D01*
X111250000Y-77669047D01*
X111297619Y-77859523D01*
X111392857Y-77954761D01*
X111488095Y-78002380D01*
X111678571Y-78002380D01*
X111773809Y-77954761D01*
X111869047Y-77859523D01*
X111916666Y-77669047D01*
X111916666Y-77335714D01*
X111869047Y-77145238D01*
X111773809Y-77050000D01*
X111678571Y-77002380D01*
X110869047Y-77716666D02*
X110392857Y-77716666D01*
X110964285Y-78002380D02*
X110630952Y-77002380D01*
X110297619Y-78002380D01*
X110011904Y-77716666D02*
X109535714Y-77716666D01*
X110107142Y-78002380D02*
X109773809Y-77002380D01*
X109440476Y-78002380D01*
M02*
